<svg width="441" height="109" viewBox="0 0 441 109" fill="none" xmlns="http://www.w3.org/2000/svg">
<path d="M238.359 94.998C238.359 97.0684 237.764 98.7871 236.572 100.154C235.387 101.521 233.851 102.205 231.963 102.205C230.127 102.205 228.636 101.521 227.49 100.154C226.344 98.7871 225.771 97.0684 225.771 94.998V94.793C225.771 92.7292 226.344 91.0104 227.49 89.6367C228.636 88.263 230.127 87.5762 231.963 87.5762C233.851 87.5762 235.387 88.263 236.572 89.6367C237.764 91.0104 238.359 92.7292 238.359 94.793V94.998ZM236.436 94.7734C236.436 93.1198 236.038 91.7721 235.244 90.7305C234.456 89.6823 233.363 89.1582 231.963 89.1582C230.622 89.1582 229.574 89.6823 228.818 90.7305C228.07 91.7786 227.695 93.1263 227.695 94.7734V94.998C227.695 96.6647 228.07 98.0221 228.818 99.0703C229.574 100.112 230.622 100.633 231.963 100.633C233.382 100.633 234.482 100.112 235.264 99.0703C236.045 98.0286 236.436 96.6712 236.436 94.998V94.7734ZM239.99 92.6738V91.4336H243.301L243.486 92.9668C243.786 92.4264 244.154 92.0033 244.59 91.6973C245.033 91.3913 245.537 91.2383 246.104 91.2383C246.253 91.2383 246.406 91.2513 246.562 91.2773C246.725 91.2969 246.849 91.3197 246.934 91.3457L246.68 93.1328L245.586 93.0742C245.078 93.0742 244.652 93.1947 244.307 93.4355C243.962 93.6699 243.695 94.002 243.506 94.4316V100.496L245.098 100.77V102H239.99V100.77L241.582 100.496V92.9473L239.99 92.6738ZM247.988 100.77L249.58 100.496V92.9473L247.988 92.6738V91.4336H251.299L251.436 93.0059C251.787 92.446 252.227 92.013 252.754 91.707C253.288 91.3945 253.893 91.2383 254.57 91.2383C255.71 91.2383 256.592 91.5736 257.217 92.2441C257.842 92.9082 258.154 93.9368 258.154 95.3301V100.496L259.746 100.77V102H254.639V100.77L256.23 100.496V95.3691C256.23 94.4382 256.045 93.7773 255.674 93.3867C255.309 92.9961 254.749 92.8008 253.994 92.8008C253.441 92.8008 252.949 92.9342 252.52 93.2012C252.096 93.4681 251.758 93.8327 251.504 94.2949V100.496L253.096 100.77V102H247.988V100.77ZM268.037 102C267.979 101.714 267.933 101.456 267.9 101.229C267.868 101.001 267.845 100.773 267.832 100.545C267.461 101.02 266.995 101.417 266.436 101.736C265.882 102.049 265.29 102.205 264.658 102.205C263.558 102.205 262.721 101.938 262.148 101.404C261.576 100.864 261.289 100.105 261.289 99.1289C261.289 98.1263 261.693 97.3548 262.5 96.8145C263.314 96.2676 264.427 95.9941 265.84 95.9941H267.822V94.7637C267.822 94.1452 267.627 93.6569 267.236 93.2988C266.846 92.9342 266.302 92.752 265.605 92.752C265.124 92.752 264.697 92.8138 264.326 92.9375C263.962 93.0612 263.665 93.2305 263.438 93.4453L263.232 94.5586H261.748V92.5078C262.23 92.1237 262.812 91.8177 263.496 91.5898C264.18 91.3555 264.922 91.2383 265.723 91.2383C266.921 91.2383 267.891 91.5443 268.633 92.1562C269.375 92.7682 269.746 93.6439 269.746 94.7832V99.8711C269.746 100.008 269.746 100.141 269.746 100.271C269.753 100.402 269.762 100.532 269.775 100.662L270.557 100.77V102H268.037ZM264.941 100.594C265.579 100.594 266.162 100.441 266.689 100.135C267.217 99.8288 267.594 99.4609 267.822 99.0312V97.293H265.771C264.984 97.293 264.359 97.4753 263.896 97.8398C263.441 98.2044 263.213 98.6471 263.213 99.168C263.213 99.6302 263.356 99.985 263.643 100.232C263.929 100.473 264.362 100.594 264.941 100.594ZM271.777 100.77L273.369 100.496V92.9473L271.777 92.6738V91.4336H275.098L275.225 92.8105C275.563 92.3092 275.999 91.9219 276.533 91.6484C277.067 91.375 277.686 91.2383 278.389 91.2383C279.092 91.2383 279.694 91.401 280.195 91.7266C280.703 92.0521 281.084 92.5404 281.338 93.1914C281.67 92.5924 282.109 92.1172 282.656 91.7656C283.203 91.4141 283.841 91.2383 284.57 91.2383C285.651 91.2383 286.504 91.6094 287.129 92.3516C287.754 93.0872 288.066 94.1973 288.066 95.6816V100.496L289.658 100.77V102H284.541V100.77L286.133 100.496V95.6621C286.133 94.6204 285.954 93.8848 285.596 93.4551C285.238 93.0189 284.707 92.8008 284.004 92.8008C283.333 92.8008 282.793 93.0384 282.383 93.5137C281.979 93.9824 281.745 94.5749 281.68 95.291V100.496L283.271 100.77V102H278.164V100.77L279.756 100.496V95.6621C279.756 94.6725 279.57 93.9499 279.199 93.4941C278.835 93.0319 278.304 92.8008 277.607 92.8008C277.021 92.8008 276.54 92.9212 276.162 93.1621C275.785 93.403 275.495 93.7415 275.293 94.1777V100.496L276.885 100.77V102H271.777V100.77ZM295.791 102.205C294.32 102.205 293.148 101.717 292.275 100.74C291.41 99.7572 290.977 98.4844 290.977 96.9219V96.4922C290.977 94.9883 291.423 93.7383 292.314 92.7422C293.213 91.7396 294.274 91.2383 295.498 91.2383C296.917 91.2383 297.992 91.668 298.721 92.5273C299.456 93.3867 299.824 94.5326 299.824 95.9648V97.166H292.969L292.939 97.2148C292.959 98.2305 293.216 99.0671 293.711 99.7246C294.206 100.376 294.899 100.701 295.791 100.701C296.442 100.701 297.012 100.61 297.5 100.428C297.995 100.239 298.421 99.9818 298.779 99.6562L299.531 100.906C299.154 101.271 298.652 101.58 298.027 101.834C297.409 102.081 296.663 102.205 295.791 102.205ZM295.498 92.752C294.854 92.752 294.303 93.0254 293.848 93.5723C293.392 94.1126 293.112 94.793 293.008 95.6133L293.027 95.6621H297.9V95.4082C297.9 94.653 297.699 94.0215 297.295 93.5137C296.891 93.0059 296.292 92.752 295.498 92.752ZM301.445 100.77L303.037 100.496V92.9473L301.445 92.6738V91.4336H304.756L304.893 93.0059C305.244 92.446 305.684 92.013 306.211 91.707C306.745 91.3945 307.35 91.2383 308.027 91.2383C309.167 91.2383 310.049 91.5736 310.674 92.2441C311.299 92.9082 311.611 93.9368 311.611 95.3301V100.496L313.203 100.77V102H308.096V100.77L309.688 100.496V95.3691C309.688 94.4382 309.502 93.7773 309.131 93.3867C308.766 92.9961 308.206 92.8008 307.451 92.8008C306.898 92.8008 306.406 92.9342 305.977 93.2012C305.553 93.4681 305.215 93.8327 304.961 94.2949V100.496L306.553 100.77V102H301.445V100.77ZM317.959 88.8848V91.4336H319.961V92.8594H317.959V99.2754C317.959 99.7702 318.06 100.118 318.262 100.32C318.47 100.522 318.743 100.623 319.082 100.623C319.251 100.623 319.44 100.61 319.648 100.584C319.863 100.551 320.042 100.519 320.186 100.486L320.449 101.805C320.267 101.922 320 102.016 319.648 102.088C319.297 102.166 318.945 102.205 318.594 102.205C317.812 102.205 317.191 101.971 316.729 101.502C316.266 101.027 316.035 100.285 316.035 99.2754V92.8594H314.365V91.4336H316.035V88.8848H317.959ZM328.818 102C328.76 101.714 328.714 101.456 328.682 101.229C328.649 101.001 328.626 100.773 328.613 100.545C328.242 101.02 327.777 101.417 327.217 101.736C326.663 102.049 326.071 102.205 325.439 102.205C324.339 102.205 323.503 101.938 322.93 101.404C322.357 100.864 322.07 100.105 322.07 99.1289C322.07 98.1263 322.474 97.3548 323.281 96.8145C324.095 96.2676 325.208 95.9941 326.621 95.9941H328.604V94.7637C328.604 94.1452 328.408 93.6569 328.018 93.2988C327.627 92.9342 327.083 92.752 326.387 92.752C325.905 92.752 325.479 92.8138 325.107 92.9375C324.743 93.0612 324.447 93.2305 324.219 93.4453L324.014 94.5586H322.529V92.5078C323.011 92.1237 323.594 91.8177 324.277 91.5898C324.961 91.3555 325.703 91.2383 326.504 91.2383C327.702 91.2383 328.672 91.5443 329.414 92.1562C330.156 92.7682 330.527 93.6439 330.527 94.7832V99.8711C330.527 100.008 330.527 100.141 330.527 100.271C330.534 100.402 330.544 100.532 330.557 100.662L331.338 100.77V102H328.818ZM325.723 100.594C326.361 100.594 326.943 100.441 327.471 100.135C327.998 99.8288 328.376 99.4609 328.604 99.0312V97.293H326.553C325.765 97.293 325.14 97.4753 324.678 97.8398C324.222 98.2044 323.994 98.6471 323.994 99.168C323.994 99.6302 324.137 99.985 324.424 100.232C324.71 100.473 325.143 100.594 325.723 100.594ZM332.676 88.0059V86.7656H336.191V100.496L337.783 100.77V102H332.676V100.77L334.268 100.496V88.2793L332.676 88.0059ZM354.346 91.9805H352.891L352.529 89.9492C352.236 89.7018 351.846 89.4967 351.357 89.334C350.869 89.1712 350.303 89.0898 349.658 89.0898C348.636 89.0898 347.852 89.3079 347.305 89.7441C346.758 90.1738 346.484 90.737 346.484 91.4336C346.484 92.0521 346.761 92.5697 347.314 92.9863C347.874 93.3965 348.776 93.7578 350.02 94.0703C351.517 94.4414 352.653 94.9883 353.428 95.7109C354.209 96.4336 354.6 97.3288 354.6 98.3965C354.6 99.5423 354.131 100.464 353.193 101.16C352.262 101.857 351.042 102.205 349.531 102.205C348.438 102.205 347.464 102.026 346.611 101.668C345.765 101.31 345.075 100.841 344.541 100.262V97.6152H345.986L346.357 99.6562C346.729 99.9622 347.171 100.213 347.686 100.408C348.2 100.604 348.815 100.701 349.531 100.701C350.501 100.701 351.266 100.496 351.826 100.086C352.393 99.6758 352.676 99.1191 352.676 98.416C352.676 97.765 352.432 97.2214 351.943 96.7852C351.455 96.3424 350.592 95.9714 349.355 95.6719C347.852 95.3138 346.676 94.7865 345.83 94.0898C344.984 93.3932 344.561 92.5176 344.561 91.4629C344.561 90.3496 345.033 89.4251 345.977 88.6895C346.921 87.9473 348.148 87.5762 349.658 87.5762C350.654 87.5762 351.559 87.7487 352.373 88.0938C353.193 88.4323 353.851 88.8457 354.346 89.334V91.9805ZM363.975 100.438C363.643 101.004 363.213 101.44 362.686 101.746C362.165 102.052 361.562 102.205 360.879 102.205C359.733 102.205 358.838 101.837 358.193 101.102C357.549 100.366 357.227 99.2201 357.227 97.6641V92.9473L356.016 92.6738V91.4336H357.227H359.15V97.6836C359.15 98.8099 359.316 99.5846 359.648 100.008C359.98 100.431 360.498 100.643 361.201 100.643C361.885 100.643 362.448 100.506 362.891 100.232C363.34 99.9525 363.678 99.5586 363.906 99.0508V92.9473L362.49 92.6738V91.4336H363.906H365.83V100.496L367.041 100.77V102H364.102L363.975 100.438ZM368.281 100.77L369.873 100.496V92.9473L368.281 92.6738V91.4336H371.592L371.729 93.0059C372.08 92.446 372.52 92.013 373.047 91.707C373.581 91.3945 374.186 91.2383 374.863 91.2383C376.003 91.2383 376.885 91.5736 377.51 92.2441C378.135 92.9082 378.447 93.9368 378.447 95.3301V100.496L380.039 100.77V102H374.932V100.77L376.523 100.496V95.3691C376.523 94.4382 376.338 93.7773 375.967 93.3867C375.602 92.9961 375.042 92.8008 374.287 92.8008C373.734 92.8008 373.242 92.9342 372.812 93.2012C372.389 93.4681 372.051 93.8327 371.797 94.2949V100.496L373.389 100.77V102H368.281V100.77ZM387.9 100.77L389.492 100.496V88.5234C389.115 88.4323 388.727 88.3607 388.33 88.3086C387.933 88.25 387.533 88.2207 387.129 88.2207C386.23 88.2207 385.579 88.4225 385.176 88.8262C384.779 89.2298 384.58 89.8451 384.58 90.6719V91.4336H387.031V92.8594H384.58V100.496L386.172 100.77V102H381.064V100.77L382.656 100.496V92.8594H381.25V91.4336H382.656V90.6719C382.656 89.3633 383.037 88.3509 383.799 87.6348C384.567 86.9186 385.628 86.5605 386.982 86.5605C387.542 86.5605 388.096 86.6126 388.643 86.7168C389.189 86.821 389.824 86.9707 390.547 87.166H391.416V100.496L393.008 100.77V102H387.9V100.77ZM394.629 96.6191C394.629 95.0566 395.052 93.7708 395.898 92.7617C396.745 91.7461 397.894 91.2383 399.346 91.2383C400.804 91.2383 401.956 91.7428 402.803 92.752C403.656 93.7611 404.082 95.0501 404.082 96.6191V96.834C404.082 98.4095 403.659 99.6986 402.812 100.701C401.966 101.704 400.817 102.205 399.365 102.205C397.9 102.205 396.745 101.704 395.898 100.701C395.052 99.6921 394.629 98.403 394.629 96.834V96.6191ZM396.553 96.834C396.553 97.9538 396.787 98.8783 397.256 99.6074C397.731 100.337 398.434 100.701 399.365 100.701C400.277 100.701 400.97 100.337 401.445 99.6074C401.921 98.8783 402.158 97.9538 402.158 96.834V96.6191C402.158 95.5124 401.921 94.5911 401.445 93.8555C400.97 93.1198 400.27 92.752 399.346 92.752C398.421 92.752 397.725 93.1198 397.256 93.8555C396.787 94.5911 396.553 95.5124 396.553 96.6191V96.834ZM409.6 92.6738L408.389 92.8887L409.766 98.1523L409.99 99.4316H410.049L410.322 98.1523L412.432 91.4336H413.975L416.094 98.1523L416.396 99.5781H416.455L416.738 98.1523L418.037 92.8887L416.807 92.6738V91.4336H420.83V92.6738L419.912 92.8105L417.246 102H415.693L413.643 95.5645L413.203 93.7871L413.145 93.7969L412.734 95.5645L410.723 102H409.17L406.504 92.8105L405.576 92.6738V91.4336H409.6V92.6738ZM427.217 102.205C425.745 102.205 424.574 101.717 423.701 100.74C422.835 99.7572 422.402 98.4844 422.402 96.9219V96.4922C422.402 94.9883 422.848 93.7383 423.74 92.7422C424.639 91.7396 425.7 91.2383 426.924 91.2383C428.343 91.2383 429.417 91.668 430.146 92.5273C430.882 93.3867 431.25 94.5326 431.25 95.9648V97.166H424.395L424.365 97.2148C424.385 98.2305 424.642 99.0671 425.137 99.7246C425.632 100.376 426.325 100.701 427.217 100.701C427.868 100.701 428.438 100.61 428.926 100.428C429.421 100.239 429.847 99.9818 430.205 99.6562L430.957 100.906C430.579 101.271 430.078 101.58 429.453 101.834C428.835 102.081 428.089 102.205 427.217 102.205ZM426.924 92.752C426.279 92.752 425.729 93.0254 425.273 93.5723C424.818 94.1126 424.538 94.793 424.434 95.6133L424.453 95.6621H429.326V95.4082C429.326 94.653 429.124 94.0215 428.721 93.5137C428.317 93.0059 427.718 92.752 426.924 92.752ZM433.154 92.6738V91.4336H436.465L436.65 92.9668C436.95 92.4264 437.318 92.0033 437.754 91.6973C438.197 91.3913 438.701 91.2383 439.268 91.2383C439.417 91.2383 439.57 91.2513 439.727 91.2773C439.889 91.2969 440.013 91.3197 440.098 91.3457L439.844 93.1328L438.75 93.0742C438.242 93.0742 437.816 93.1947 437.471 93.4355C437.126 93.6699 436.859 94.002 436.67 94.4316V100.496L438.262 100.77V102H433.154V100.77L434.746 100.496V92.9473L433.154 92.6738Z" fill="#324950"/>
<mask id="path-2-inside-1_1_574" fill="white">
<path d="M330.556 0.209978C330.883 -0.0780946 331.346 0.00202752 331.741 0.0387246C332.907 0.18796 334.059 0.479702 335.142 0.945143C336.118 1.38123 337.013 1.99346 337.787 2.73719C338.513 3.42709 339.178 4.20324 339.621 5.11455C340.148 4.49865 340.59 3.81669 341.002 3.11761C341.143 2.89988 341.3 2.68336 341.51 2.52862C341.86 2.31517 342.334 2.20936 342.699 2.44911C342.944 2.58979 343.038 2.87969 343.243 3.06379C343.789 3.59345 344.358 4.09804 344.955 4.56776C345.354 4.91271 345.746 5.26745 346.119 5.64176C346.66 6.15797 347.112 6.75858 347.574 7.34451C347.935 7.8864 348.307 8.42707 348.544 9.0393C349.202 8.49619 349.882 7.97937 350.498 7.38549C350.707 7.16347 351.02 7.10965 351.31 7.11515C351.547 7.09864 351.784 7.19344 351.957 7.35613C352.394 7.76041 352.696 8.28212 353.04 8.76408C353.535 9.57753 354.018 10.4112 354.297 11.3304C354.551 12.0161 354.656 12.7433 354.746 13.4662C354.836 14.6797 354.807 15.931 354.416 17.0925C354.768 17.0478 355.121 17.0093 355.473 16.9634C356.173 16.8619 356.849 16.5402 357.567 16.6069C357.938 16.7096 358.32 16.9451 358.44 17.339C358.543 17.6319 358.408 17.931 358.412 18.2277C358.405 19.1322 358.539 20.0283 358.601 20.9286C358.698 22.2931 358.645 23.6741 358.367 25.0154C358.27 25.4454 358.176 25.8784 357.992 26.2808C358.856 26.3591 359.717 26.4821 360.585 26.5071C360.863 26.5041 361.097 26.6839 361.285 26.8735C361.447 27.0276 361.562 27.2399 361.575 27.468C361.597 27.9616 361.529 28.4545 361.43 28.9365C361.336 29.5848 361.141 30.2111 360.964 30.8392C360.773 31.3952 360.524 31.9285 360.252 32.4478C359.899 33.12 359.418 33.7102 358.932 34.2851C358.233 35.0276 357.463 35.7291 356.544 36.175C357.15 36.7144 357.825 37.164 358.52 37.5756C358.795 37.7762 359.102 37.9952 359.209 38.3401C359.336 38.6472 359.356 39.0221 359.168 39.3095C359.029 39.5517 358.755 39.6551 358.57 39.8539C358.161 40.2808 357.78 40.734 357.414 41.1994C356.523 42.3426 355.507 43.3915 354.35 44.2581C353.82 44.6245 353.287 44.9958 352.69 45.2435C353.121 45.7927 353.543 46.3487 354.002 46.874C354.202 47.1168 354.477 47.3285 354.542 47.6557C354.588 47.959 354.623 48.3022 354.443 48.5707C354.165 48.9829 353.729 49.2398 353.342 49.534C352.863 49.9009 352.333 50.1908 351.81 50.4881C350.527 51.1786 349.082 51.5468 347.631 51.5768C346.666 51.6061 345.68 51.5266 344.762 51.2043C344.813 51.6544 344.838 52.1089 344.936 52.5523C345.04 53.1584 345.287 53.7486 345.235 54.3743C345.137 54.8661 344.739 55.3731 344.198 55.3291C343.279 55.1664 342.35 55.3523 341.431 55.4177C340.395 55.5095 339.348 55.5388 338.312 55.4294C337.43 55.3339 336.54 55.1896 335.718 54.8385C335.619 55.7242 335.512 56.6104 335.481 57.5015C335.472 57.7737 335.298 57.9994 335.118 58.1847C334.961 58.3529 334.743 58.4709 334.511 58.4764C334.041 58.493 333.573 58.4312 333.115 58.3321C331.531 58.0575 329.971 57.4862 328.677 56.5003C327.578 55.6563 326.586 54.6208 325.958 53.3651C325.65 53.781 325.304 54.1682 325.043 54.6183C324.744 55.0813 324.52 55.6238 324.065 55.9572C323.727 56.1602 323.278 56.2679 322.919 56.0569C322.694 55.9413 322.579 55.7058 322.425 55.5168C321.905 54.959 321.308 54.4844 320.718 54.0055C319.929 53.3236 319.159 52.608 318.511 51.7823C317.93 51.0673 317.396 50.3009 317.031 49.4471C316.332 50.008 315.645 50.5835 314.98 51.1847C314.744 51.37 314.429 51.3725 314.145 51.3658C313.784 51.3395 313.513 51.0551 313.298 50.7866C312.268 49.4392 311.398 47.9236 311.025 46.2465C310.771 44.9627 310.697 43.63 310.927 42.337C310.971 42.0135 311.056 41.6973 311.177 41.3958C310.6 41.4624 310.019 41.5169 309.456 41.6618C308.983 41.7719 308.503 41.9358 308.013 41.8734C307.655 41.767 307.287 41.5444 307.163 41.1664C307.06 40.8881 307.159 40.5958 307.177 40.3126C307.186 39.0227 306.92 37.7493 306.938 36.4588C306.914 35.5151 307.016 34.5725 307.175 33.6435C307.28 33.1579 307.385 32.6686 307.586 32.2129C306.723 32.1193 305.86 32.005 304.991 31.975C304.775 31.9732 304.583 31.8545 304.423 31.7193C304.215 31.5628 304.041 31.3389 304.01 31.071C303.96 30.4539 304.111 29.8472 304.203 29.2423C304.522 27.6564 305.118 26.098 306.129 24.8313C306.933 23.8185 307.883 22.8864 309.041 22.3047C308.733 22.0735 308.442 21.8209 308.134 21.5916C307.71 21.3016 307.263 21.0484 306.842 20.7549C306.507 20.5133 306.29 20.1188 306.273 19.7004C306.257 19.4001 306.402 19.0968 306.644 18.9237C306.784 18.8246 306.926 18.7267 307.041 18.5983C307.333 18.2827 307.63 17.9702 307.902 17.6362C308.489 16.8564 309.136 16.1243 309.82 15.4307C310.046 15.2038 310.287 14.9952 310.538 14.7989C311.249 14.1781 312.03 13.6277 312.888 13.2417C312.432 12.6583 311.989 12.0631 311.495 11.5127C311.327 11.3078 311.102 11.1304 311.044 10.857C310.982 10.5188 310.954 10.1237 311.186 9.84175C311.597 9.34878 312.157 9.02524 312.669 8.65521C313.268 8.2913 313.856 7.8968 314.514 7.64787C315.5 7.2069 316.569 6.98916 317.641 6.91821C318.712 6.86745 319.814 6.91638 320.831 7.28824C320.76 6.81729 320.74 6.3384 320.633 5.87295C320.524 5.28764 320.292 4.71088 320.347 4.10599C320.442 3.73412 320.665 3.35064 321.04 3.21853C321.289 3.12189 321.555 3.19223 321.808 3.22342C322.771 3.26012 323.724 3.08153 324.684 3.02465C325.469 2.99345 326.258 2.94942 327.042 3.03504C328.001 3.13474 328.98 3.26012 329.873 3.64911C329.953 2.78122 330.069 1.91639 330.096 1.04423C330.095 0.706001 330.327 0.430161 330.556 0.209978ZM331.899 1.98489C331.831 2.89865 331.734 3.81119 331.599 4.717C332.552 5.49192 333.278 6.54635 333.675 7.71821C333.968 8.74083 333.982 9.8338 333.824 10.8809C335.066 10.9506 336.302 11.1396 337.504 11.465C337.478 10.9708 337.475 10.4735 337.51 9.97936C337.561 9.26255 337.818 8.58793 338.012 7.90414C338.1 7.62096 338.302 7.35797 338.252 7.04604C338.176 6.16714 337.693 5.38672 337.123 4.74574C336.42 3.95492 335.596 3.25645 334.642 2.80141C334.008 2.46502 333.309 2.29499 332.624 2.10722C332.385 2.04973 332.141 2.01731 331.899 1.98489ZM342.224 4.6907C341.81 5.43381 341.249 6.07601 340.719 6.73411C340.451 7.05705 340.276 7.44237 340.08 7.80995C339.823 8.30292 339.684 8.84298 339.518 9.37019C339.417 9.72676 339.35 10.0956 339.341 10.4668C339.329 11.0301 339.335 11.6087 339.526 12.1451C340.837 12.6521 342.083 13.3378 343.231 14.1549C343.303 14.0026 343.376 13.843 343.509 13.7347C343.951 13.3995 344.2 12.8668 344.379 12.35C344.527 11.9708 344.36 11.5463 344.543 11.1763C344.709 10.6998 345.317 10.4827 345.746 10.7298C346.113 10.9494 346.328 11.3812 346.325 11.8099C346.328 12.7482 345.947 13.6448 345.429 14.4056C345.235 14.7488 344.931 15.0063 344.626 15.2442C344.754 15.3579 344.881 15.4717 345.007 15.5885C345.51 15.3225 345.897 14.8852 346.28 14.4705C347.27 13.2919 347.404 11.5653 346.943 10.1323C346.785 9.5078 346.412 8.97692 346.06 8.45154C345.652 7.9335 345.253 7.402 344.771 6.95002C343.978 6.13167 343.04 5.48335 342.224 4.6907ZM322.363 5.09559C322.592 5.91149 322.633 6.76347 322.721 7.60261C322.77 8.17815 322.981 8.72065 323.163 9.26255C323.431 9.83196 323.695 10.4106 324.064 10.9206C324.535 11.4803 325.047 12.0313 325.705 12.3641C325.917 12.265 326.142 12.1653 326.382 12.1983C326.85 12.235 327.239 12.679 327.22 13.1549C327.22 13.5347 326.969 13.8913 326.621 14.0252C325.823 14.3604 325.055 14.7671 324.319 15.2252C324.005 15.4295 323.574 15.4393 323.267 15.2167C322.88 14.9592 322.748 14.3904 322.979 13.983C323.145 13.6564 323.509 13.5335 323.793 13.3402C323.342 12.9384 322.928 12.495 322.547 12.0246C322.073 11.3506 321.715 10.602 321.382 9.84848C321.293 9.68456 321.134 9.57447 320.992 9.46071C320.237 8.95368 319.314 8.8075 318.425 8.78181C317.344 8.78242 316.25 8.94756 315.252 9.38487C314.509 9.68334 313.841 10.1414 313.18 10.591C313.759 11.3035 314.332 12.0222 314.878 12.761C316.458 12.5953 318.136 12.9904 319.373 14.0326C319.894 14.4888 320.369 15.0008 320.78 15.5622C320.97 15.3677 321.211 15.1989 321.492 15.1965C321.965 15.1579 322.418 15.5469 322.463 16.0258C322.509 16.3573 322.354 16.6845 322.109 16.8974C320.781 18.0949 319.638 19.5059 318.757 21.0723C318.14 22.1634 317.678 23.3396 317.288 24.531C316.852 26.1004 316.579 27.7298 316.621 29.3646C316.641 30.3866 316.693 31.4154 316.911 32.4166C317.143 33.6869 317.559 34.9144 318.056 36.1016C318.284 36.5903 318.549 37.06 318.81 37.5316C319.913 39.5456 321.485 41.2832 323.326 42.6251C324.059 43.1903 324.856 43.6637 325.681 44.0783C326.149 44.3175 326.626 44.5499 327.134 44.6899C328.625 45.3334 330.243 45.6428 331.857 45.7089C332.237 45.7419 332.617 45.7915 332.998 45.7823C333.562 45.7505 334.126 45.7071 334.689 45.6575C336.206 45.5395 337.686 45.1138 339.093 44.5383C339.302 44.463 339.436 44.26 339.647 44.1903C339.832 44.1291 340.034 44.123 340.205 44.0208C342.141 43.0233 343.899 41.6471 345.285 39.9462C346.389 38.6686 347.241 37.1854 347.9 35.627C348.007 35.4099 347.929 35.1554 348.02 34.9334C348.088 34.7248 348.29 34.5964 348.35 34.3842C348.544 33.7597 348.706 33.1248 348.846 32.4863C348.957 31.8466 349.034 31.2013 349.093 30.5554C349.124 30.1787 349.174 29.8019 349.152 29.4233C349.108 28.2386 349.066 27.0441 348.801 25.8851C348.599 24.8515 348.268 23.8496 347.885 22.8723C347.814 22.6717 347.632 22.5438 347.541 22.3561C347.45 22.1805 347.473 21.9695 347.375 21.7977C345.609 18.2026 342.483 15.317 338.788 13.8809C338.399 13.8185 338.075 13.5787 337.695 13.4864C335.637 12.8442 333.452 12.6136 331.309 12.8258C330.674 12.8839 330.168 12.18 330.377 11.5769C330.058 11.5133 329.759 11.3096 329.634 10.9965C329.516 10.7549 329.595 10.4839 329.591 10.2289C329.551 9.76285 329.392 9.31392 329.186 8.89924C329.053 8.61606 328.756 8.47172 328.607 8.20078C328.361 7.8546 328.406 7.32616 328.728 7.04482C329.015 6.76592 329.463 6.78304 329.814 6.9072C330.299 7.15368 330.617 7.62952 330.881 8.09374C331.282 8.96774 331.588 9.95306 331.389 10.9231C331.565 10.906 331.743 10.8931 331.92 10.8827C332.113 10.0668 332.122 9.20138 331.922 8.38548C331.743 7.75919 331.386 7.20567 330.977 6.71026C330.411 6.08763 329.696 5.6228 328.928 5.30048C328.121 5.04176 327.275 4.94696 326.434 4.87785C325.971 4.85033 325.51 4.8803 325.048 4.89681C324.15 4.92128 323.264 5.11455 322.363 5.09559ZM349.037 11.0448C349.003 11.1323 349.034 11.2313 349.034 11.3231C349.109 11.939 349.017 12.5592 348.914 13.1653C348.835 13.6307 348.648 14.0662 348.474 14.5011C347.998 15.4937 347.214 16.2962 346.365 16.9677C347.194 17.898 347.914 18.9249 348.551 19.9995C349.181 19.2711 349.922 18.6197 350.79 18.2007C351.162 17.9983 351.543 17.8148 351.926 17.6344C352.388 17.2552 352.611 16.6613 352.766 16.0962C353.133 14.3494 352.895 12.4742 352.1 10.8803C351.81 10.3482 351.505 9.82462 351.163 9.32615C350.459 9.90475 349.756 10.4858 349.037 11.0448ZM313.314 15.1286C312.872 15.3781 312.446 15.6589 312.051 15.9793C311.708 16.2827 311.333 16.5494 311.019 16.8858C310.662 17.2778 310.289 17.6533 309.952 18.0637C309.519 18.6075 309.098 19.164 308.61 19.6595C309.394 20.1151 310.064 20.7359 310.77 21.3016C311.377 21.7304 312.052 22.0594 312.759 22.2772C313.821 22.6374 314.999 22.7414 316.075 22.3824C316.592 21.0705 317.255 19.8203 318.057 18.6662C317.925 18.6203 317.788 18.5818 317.674 18.498C317.487 18.3647 317.386 18.142 317.194 18.0136C316.867 17.7861 316.513 17.591 316.136 17.4631C315.768 17.3286 315.36 17.4882 315.002 17.3059C314.517 17.1341 314.31 16.4821 314.582 16.0466C314.795 15.7322 315.155 15.5023 315.539 15.5145C316.317 15.4503 317.064 15.7475 317.733 16.1212C318.251 16.4307 318.771 16.7903 319.067 17.3384C319.188 17.2032 319.312 17.0692 319.433 16.9341C319.293 16.7573 319.199 16.5488 319.047 16.3806C318.658 15.9225 318.239 15.4754 317.724 15.1604C317.092 14.8093 316.375 14.6289 315.656 14.6081C314.849 14.6044 314.047 14.7904 313.314 15.1286ZM353.69 19.0741C353.204 19.2062 352.714 19.3494 352.256 19.564C351.815 19.805 351.348 20.0013 350.942 20.3023C350.383 20.753 349.848 21.2601 349.497 21.8992C350.061 23.2252 350.478 24.6154 350.733 26.0368C350.898 25.9836 351.07 25.9493 351.244 25.9775C351.643 26.0331 352.041 25.912 352.41 25.7677C352.681 25.6625 352.963 25.5408 353.155 25.3096C353.398 25.0013 353.8 24.7946 354.193 24.8631C354.577 24.931 354.887 25.3004 354.88 25.6992C354.874 25.9359 354.828 26.1824 354.695 26.3811C354.435 26.7683 354.049 27.0472 353.655 27.2802C352.817 27.6906 351.882 27.9903 350.942 27.8478C350.952 28.0221 350.963 28.1976 350.974 28.3726C351.753 28.5701 352.585 28.5493 353.362 28.3506C354.804 27.8827 355.908 26.6301 356.404 25.2019C356.611 24.4454 356.717 23.6649 356.774 22.8833C356.87 21.4698 356.609 20.0698 356.561 18.6607C355.625 18.9292 354.644 18.9218 353.69 19.0741ZM308.97 24.5885C308.34 25.0918 307.79 25.6998 307.329 26.3646C307.023 26.7677 306.821 27.2399 306.6 27.6937C306.295 28.4814 306.051 29.3035 305.955 30.1469C306.853 30.2197 307.75 30.3187 308.641 30.4527C308.731 30.3542 308.819 30.2539 308.902 30.1499C309.266 29.7004 309.74 29.3646 310.203 29.0294C310.639 28.7206 311.141 28.5298 311.632 28.3347C312.652 28.0386 313.732 28.0545 314.776 28.1946C314.846 26.934 315.064 25.6851 315.373 24.4631C314.843 24.509 314.311 24.4821 313.782 24.4441C313.051 24.3659 312.342 24.1463 311.654 23.8912C311.405 23.8099 311.166 23.6417 310.893 23.698C310.181 23.7805 309.517 24.1285 308.97 24.5885ZM353.999 30.1334C353.027 30.4374 351.986 30.4392 350.984 30.3151C350.883 31.5622 350.742 32.8135 350.394 34.0184C351.019 34.0105 351.65 33.9829 352.267 34.1053C352.762 34.1891 353.229 34.3811 353.711 34.5144C353.959 34.5854 354.181 34.7303 354.431 34.7933C355.077 34.8025 355.703 34.5414 356.233 34.1811C356.988 33.6563 357.632 32.9805 358.175 32.2362C358.6 31.6667 358.898 31.0117 359.158 30.3512C359.365 29.6931 359.529 29.0221 359.651 28.3432C358.744 28.2637 357.837 28.1726 356.936 28.0313C356.184 29.0001 355.145 29.7304 353.999 30.1334ZM311.298 30.5622C310.914 30.8429 310.505 31.1071 310.222 31.5016C309.896 31.8374 309.659 32.2453 309.45 32.6631C309.199 33.0747 309.102 33.5542 309.003 34.0209C308.842 34.9469 308.751 35.8888 308.8 36.83C308.823 37.8306 309.019 38.819 309.019 39.8208C309.891 39.5915 310.795 39.5548 311.686 39.4478C312.425 39.2979 313.149 39.052 313.812 38.6832C314.243 38.4447 314.684 38.205 315.037 37.8514C315.47 37.4398 315.906 37.0062 316.158 36.4502C316.163 36.364 316.116 36.2863 316.091 36.2074C315.587 34.9713 315.231 33.6759 315.001 32.3585C314.799 32.471 314.571 32.5487 314.339 32.5065C314.003 32.4459 313.677 32.567 313.357 32.6496C313.005 32.7732 312.629 32.9132 312.387 33.2166C312.19 33.4374 311.926 33.6331 311.623 33.6472C311.211 33.6894 310.805 33.3726 310.73 32.9609C310.691 32.6417 310.724 32.2882 310.934 32.0319C311.389 31.4294 312.089 31.0857 312.781 30.8478C313.433 30.6509 314.14 30.4912 314.813 30.6894C314.799 30.5065 314.788 30.323 314.778 30.1401C313.622 29.8704 312.327 29.9004 311.298 30.5622ZM349.747 36.0404C349.21 37.3884 348.529 38.6771 347.715 39.8734C347.977 39.9805 348.126 40.2276 348.321 40.4166C348.673 40.6918 349.073 40.9083 349.5 41.0355C349.834 41.1438 350.197 41.0062 350.522 41.1566C350.99 41.29 351.248 41.863 351.058 42.3144C350.866 42.7487 350.386 43 349.927 42.9878C349.469 42.9744 349.003 42.9034 348.582 42.7138C347.826 42.4135 347.092 41.9689 346.6 41.2985C346.492 41.4257 346.382 41.5517 346.271 41.6759C346.389 41.9854 346.627 42.2184 346.841 42.46C347.273 42.9144 347.756 43.3529 348.357 43.5578C348.791 43.764 349.273 43.8123 349.743 43.8734C350.833 43.9046 351.966 43.6477 352.862 42.9909C354.025 42.2276 355.007 41.2123 355.876 40.1242C356.227 39.6783 356.583 39.2349 356.968 38.819C356.164 38.3744 355.499 37.7236 354.779 37.1585C354.186 36.7664 353.549 36.4337 352.867 36.2349C352.38 36.0728 351.884 35.9163 351.367 35.8979C350.825 35.882 350.271 35.879 349.747 36.0404ZM315.403 39.9358C314.91 40.2471 314.396 40.5279 313.858 40.7505C313.752 40.7982 313.638 40.8404 313.557 40.9285C313.207 41.2845 313.011 41.7609 312.858 42.2312C312.538 43.4471 312.61 44.734 312.871 45.9542C313.152 47.1297 313.752 48.1908 314.431 49.1725C314.72 48.8893 315.043 48.6471 315.354 48.3909C315.753 48.0722 316.137 47.7334 316.563 47.4514C316.467 46.3872 316.565 45.2832 316.987 44.2961C317.42 43.1266 318.323 42.208 319.29 41.4716C318.477 40.515 317.732 39.4949 317.144 38.3787C316.61 38.9462 316.077 39.5364 315.403 39.9358ZM319.327 43.9811C319.034 44.3199 318.805 44.7107 318.66 45.1376C318.271 46.1951 318.312 47.3866 318.672 48.4459C318.845 49.0569 319.208 49.5866 319.571 50.0954C320.062 50.7529 320.599 51.3749 321.208 51.9236C321.889 52.5866 322.678 53.1236 323.354 53.7927C323.709 53.1798 324.151 52.6275 324.594 52.0789C325.458 51.104 325.935 49.8398 326.187 48.5688C326.279 47.8239 326.303 47.0404 326.055 46.3224C325.773 46.2068 325.49 46.0948 325.218 45.9572C324.226 45.4673 323.249 44.9303 322.367 44.2526C322.308 44.4068 322.252 44.5701 322.133 44.6887C321.991 44.8312 321.817 44.9444 321.708 45.1187C321.477 45.4899 321.245 45.874 321.156 46.3101C321.088 46.6092 321.192 46.9272 321.07 47.2172C320.975 47.5658 320.654 47.8441 320.294 47.852C319.735 47.8997 319.284 47.3352 319.276 46.8019C319.216 46.1389 319.407 45.4887 319.682 44.8948C320.013 44.2514 320.4 43.5994 321.017 43.2007C320.894 43.0844 320.769 42.9688 320.645 42.8545C320.133 43.1328 319.718 43.5523 319.327 43.9811ZM341.9 45.2459C342.495 45.7994 343.056 46.4074 343.456 47.1248C343.698 47.5805 343.962 48.0275 344.137 48.5162C344.19 48.6881 344.325 48.8098 344.458 48.9199C345.133 49.4697 346.017 49.6251 346.857 49.6893C348.219 49.759 349.606 49.5003 350.828 48.8746C351.371 48.5762 351.913 48.2704 352.404 47.8881C351.817 47.1847 351.255 46.4575 350.701 45.7297C350.422 45.7224 350.146 45.7823 349.868 45.7676C348.884 45.7358 347.898 45.5034 347.03 45.0245C346.187 44.5395 345.496 43.8251 344.898 43.06C343.974 43.8881 342.967 44.6196 341.9 45.2459ZM335.921 47.4141C336.055 47.6789 335.999 47.9737 335.988 48.2569C336.072 48.7982 336.214 49.3566 336.541 49.8031C336.82 50.0563 337.115 50.3633 337.129 50.7682C337.165 51.2067 336.816 51.6281 336.387 51.671C336.089 51.6869 335.771 51.6294 335.534 51.4349C335.054 51.0624 334.734 50.5199 334.515 49.956C334.231 49.2116 334.025 48.3951 334.182 47.5964C334.008 47.6104 333.833 47.6239 333.658 47.6379C333.467 48.4594 333.465 49.3358 333.679 50.1535C334.145 51.6159 335.384 52.7395 336.797 53.2281C337.951 53.5492 339.156 53.6599 340.349 53.6018C341.308 53.5682 342.257 53.4018 343.217 53.3878C342.968 52.5132 342.949 51.5976 342.843 50.6997C342.682 49.8355 342.375 49.0006 341.934 48.2434C341.622 47.6135 341.138 47.093 340.625 46.6288C340.422 46.4808 340.228 46.285 339.985 46.2233C338.673 46.7487 337.32 47.1976 335.921 47.4141ZM328.09 47.0288C328.103 47.378 328.117 47.7279 328.094 48.0777C328.077 49.1407 327.731 50.1609 327.359 51.1431C327.275 51.4434 327.366 51.7615 327.451 52.0526C327.72 52.9425 328.345 53.6563 328.983 54.2985C329.526 54.7988 330.103 55.2765 330.773 55.5927C331.67 56.0911 332.678 56.3321 333.678 56.5131C333.755 55.5951 333.849 54.6777 333.981 53.7664C333.401 53.3101 332.936 52.7248 332.532 52.1083C332.025 51.2869 331.705 50.3401 331.678 49.3664C331.637 48.7853 331.678 48.2019 331.751 47.6251C330.518 47.523 329.283 47.3737 328.09 47.0288Z"/>
</mask>
<path d="M330.556 0.209978C330.883 -0.0780946 331.346 0.00202752 331.741 0.0387246C332.907 0.18796 334.059 0.479702 335.142 0.945143C336.118 1.38123 337.013 1.99346 337.787 2.73719C338.513 3.42709 339.178 4.20324 339.621 5.11455C340.148 4.49865 340.59 3.81669 341.002 3.11761C341.143 2.89988 341.3 2.68336 341.51 2.52862C341.86 2.31517 342.334 2.20936 342.699 2.44911C342.944 2.58979 343.038 2.87969 343.243 3.06379C343.789 3.59345 344.358 4.09804 344.955 4.56776C345.354 4.91271 345.746 5.26745 346.119 5.64176C346.66 6.15797 347.112 6.75858 347.574 7.34451C347.935 7.8864 348.307 8.42707 348.544 9.0393C349.202 8.49619 349.882 7.97937 350.498 7.38549C350.707 7.16347 351.02 7.10965 351.31 7.11515C351.547 7.09864 351.784 7.19344 351.957 7.35613C352.394 7.76041 352.696 8.28212 353.04 8.76408C353.535 9.57753 354.018 10.4112 354.297 11.3304C354.551 12.0161 354.656 12.7433 354.746 13.4662C354.836 14.6797 354.807 15.931 354.416 17.0925C354.768 17.0478 355.121 17.0093 355.473 16.9634C356.173 16.8619 356.849 16.5402 357.567 16.6069C357.938 16.7096 358.32 16.9451 358.44 17.339C358.543 17.6319 358.408 17.931 358.412 18.2277C358.405 19.1322 358.539 20.0283 358.601 20.9286C358.698 22.2931 358.645 23.6741 358.367 25.0154C358.27 25.4454 358.176 25.8784 357.992 26.2808C358.856 26.3591 359.717 26.4821 360.585 26.5071C360.863 26.5041 361.097 26.6839 361.285 26.8735C361.447 27.0276 361.562 27.2399 361.575 27.468C361.597 27.9616 361.529 28.4545 361.43 28.9365C361.336 29.5848 361.141 30.2111 360.964 30.8392C360.773 31.3952 360.524 31.9285 360.252 32.4478C359.899 33.12 359.418 33.7102 358.932 34.2851C358.233 35.0276 357.463 35.7291 356.544 36.175C357.15 36.7144 357.825 37.164 358.52 37.5756C358.795 37.7762 359.102 37.9952 359.209 38.3401C359.336 38.6472 359.356 39.0221 359.168 39.3095C359.029 39.5517 358.755 39.6551 358.57 39.8539C358.161 40.2808 357.78 40.734 357.414 41.1994C356.523 42.3426 355.507 43.3915 354.35 44.2581C353.82 44.6245 353.287 44.9958 352.69 45.2435C353.121 45.7927 353.543 46.3487 354.002 46.874C354.202 47.1168 354.477 47.3285 354.542 47.6557C354.588 47.959 354.623 48.3022 354.443 48.5707C354.165 48.9829 353.729 49.2398 353.342 49.534C352.863 49.9009 352.333 50.1908 351.81 50.4881C350.527 51.1786 349.082 51.5468 347.631 51.5768C346.666 51.6061 345.68 51.5266 344.762 51.2043C344.813 51.6544 344.838 52.1089 344.936 52.5523C345.04 53.1584 345.287 53.7486 345.235 54.3743C345.137 54.8661 344.739 55.3731 344.198 55.3291C343.279 55.1664 342.35 55.3523 341.431 55.4177C340.395 55.5095 339.348 55.5388 338.312 55.4294C337.43 55.3339 336.54 55.1896 335.718 54.8385C335.619 55.7242 335.512 56.6104 335.481 57.5015C335.472 57.7737 335.298 57.9994 335.118 58.1847C334.961 58.3529 334.743 58.4709 334.511 58.4764C334.041 58.493 333.573 58.4312 333.115 58.3321C331.531 58.0575 329.971 57.4862 328.677 56.5003C327.578 55.6563 326.586 54.6208 325.958 53.3651C325.65 53.781 325.304 54.1682 325.043 54.6183C324.744 55.0813 324.52 55.6238 324.065 55.9572C323.727 56.1602 323.278 56.2679 322.919 56.0569C322.694 55.9413 322.579 55.7058 322.425 55.5168C321.905 54.959 321.308 54.4844 320.718 54.0055C319.929 53.3236 319.159 52.608 318.511 51.7823C317.93 51.0673 317.396 50.3009 317.031 49.4471C316.332 50.008 315.645 50.5835 314.98 51.1847C314.744 51.37 314.429 51.3725 314.145 51.3658C313.784 51.3395 313.513 51.0551 313.298 50.7866C312.268 49.4392 311.398 47.9236 311.025 46.2465C310.771 44.9627 310.697 43.63 310.927 42.337C310.971 42.0135 311.056 41.6973 311.177 41.3958C310.6 41.4624 310.019 41.5169 309.456 41.6618C308.983 41.7719 308.503 41.9358 308.013 41.8734C307.655 41.767 307.287 41.5444 307.163 41.1664C307.06 40.8881 307.159 40.5958 307.177 40.3126C307.186 39.0227 306.92 37.7493 306.938 36.4588C306.914 35.5151 307.016 34.5725 307.175 33.6435C307.28 33.1579 307.385 32.6686 307.586 32.2129C306.723 32.1193 305.86 32.005 304.991 31.975C304.775 31.9732 304.583 31.8545 304.423 31.7193C304.215 31.5628 304.041 31.3389 304.01 31.071C303.96 30.4539 304.111 29.8472 304.203 29.2423C304.522 27.6564 305.118 26.098 306.129 24.8313C306.933 23.8185 307.883 22.8864 309.041 22.3047C308.733 22.0735 308.442 21.8209 308.134 21.5916C307.71 21.3016 307.263 21.0484 306.842 20.7549C306.507 20.5133 306.29 20.1188 306.273 19.7004C306.257 19.4001 306.402 19.0968 306.644 18.9237C306.784 18.8246 306.926 18.7267 307.041 18.5983C307.333 18.2827 307.63 17.9702 307.902 17.6362C308.489 16.8564 309.136 16.1243 309.82 15.4307C310.046 15.2038 310.287 14.9952 310.538 14.7989C311.249 14.1781 312.03 13.6277 312.888 13.2417C312.432 12.6583 311.989 12.0631 311.495 11.5127C311.327 11.3078 311.102 11.1304 311.044 10.857C310.982 10.5188 310.954 10.1237 311.186 9.84175C311.597 9.34878 312.157 9.02524 312.669 8.65521C313.268 8.2913 313.856 7.8968 314.514 7.64787C315.5 7.2069 316.569 6.98916 317.641 6.91821C318.712 6.86745 319.814 6.91638 320.831 7.28824C320.76 6.81729 320.74 6.3384 320.633 5.87295C320.524 5.28764 320.292 4.71088 320.347 4.10599C320.442 3.73412 320.665 3.35064 321.04 3.21853C321.289 3.12189 321.555 3.19223 321.808 3.22342C322.771 3.26012 323.724 3.08153 324.684 3.02465C325.469 2.99345 326.258 2.94942 327.042 3.03504C328.001 3.13474 328.98 3.26012 329.873 3.64911C329.953 2.78122 330.069 1.91639 330.096 1.04423C330.095 0.706001 330.327 0.430161 330.556 0.209978ZM331.899 1.98489C331.831 2.89865 331.734 3.81119 331.599 4.717C332.552 5.49192 333.278 6.54635 333.675 7.71821C333.968 8.74083 333.982 9.8338 333.824 10.8809C335.066 10.9506 336.302 11.1396 337.504 11.465C337.478 10.9708 337.475 10.4735 337.51 9.97936C337.561 9.26255 337.818 8.58793 338.012 7.90414C338.1 7.62096 338.302 7.35797 338.252 7.04604C338.176 6.16714 337.693 5.38672 337.123 4.74574C336.42 3.95492 335.596 3.25645 334.642 2.80141C334.008 2.46502 333.309 2.29499 332.624 2.10722C332.385 2.04973 332.141 2.01731 331.899 1.98489ZM342.224 4.6907C341.81 5.43381 341.249 6.07601 340.719 6.73411C340.451 7.05705 340.276 7.44237 340.08 7.80995C339.823 8.30292 339.684 8.84298 339.518 9.37019C339.417 9.72676 339.35 10.0956 339.341 10.4668C339.329 11.0301 339.335 11.6087 339.526 12.1451C340.837 12.6521 342.083 13.3378 343.231 14.1549C343.303 14.0026 343.376 13.843 343.509 13.7347C343.951 13.3995 344.2 12.8668 344.379 12.35C344.527 11.9708 344.36 11.5463 344.543 11.1763C344.709 10.6998 345.317 10.4827 345.746 10.7298C346.113 10.9494 346.328 11.3812 346.325 11.8099C346.328 12.7482 345.947 13.6448 345.429 14.4056C345.235 14.7488 344.931 15.0063 344.626 15.2442C344.754 15.3579 344.881 15.4717 345.007 15.5885C345.51 15.3225 345.897 14.8852 346.28 14.4705C347.27 13.2919 347.404 11.5653 346.943 10.1323C346.785 9.5078 346.412 8.97692 346.06 8.45154C345.652 7.9335 345.253 7.402 344.771 6.95002C343.978 6.13167 343.04 5.48335 342.224 4.6907ZM322.363 5.09559C322.592 5.91149 322.633 6.76347 322.721 7.60261C322.77 8.17815 322.981 8.72065 323.163 9.26255C323.431 9.83196 323.695 10.4106 324.064 10.9206C324.535 11.4803 325.047 12.0313 325.705 12.3641C325.917 12.265 326.142 12.1653 326.382 12.1983C326.85 12.235 327.239 12.679 327.22 13.1549C327.22 13.5347 326.969 13.8913 326.621 14.0252C325.823 14.3604 325.055 14.7671 324.319 15.2252C324.005 15.4295 323.574 15.4393 323.267 15.2167C322.88 14.9592 322.748 14.3904 322.979 13.983C323.145 13.6564 323.509 13.5335 323.793 13.3402C323.342 12.9384 322.928 12.495 322.547 12.0246C322.073 11.3506 321.715 10.602 321.382 9.84848C321.293 9.68456 321.134 9.57447 320.992 9.46071C320.237 8.95368 319.314 8.8075 318.425 8.78181C317.344 8.78242 316.25 8.94756 315.252 9.38487C314.509 9.68334 313.841 10.1414 313.18 10.591C313.759 11.3035 314.332 12.0222 314.878 12.761C316.458 12.5953 318.136 12.9904 319.373 14.0326C319.894 14.4888 320.369 15.0008 320.78 15.5622C320.97 15.3677 321.211 15.1989 321.492 15.1965C321.965 15.1579 322.418 15.5469 322.463 16.0258C322.509 16.3573 322.354 16.6845 322.109 16.8974C320.781 18.0949 319.638 19.5059 318.757 21.0723C318.14 22.1634 317.678 23.3396 317.288 24.531C316.852 26.1004 316.579 27.7298 316.621 29.3646C316.641 30.3866 316.693 31.4154 316.911 32.4166C317.143 33.6869 317.559 34.9144 318.056 36.1016C318.284 36.5903 318.549 37.06 318.81 37.5316C319.913 39.5456 321.485 41.2832 323.326 42.6251C324.059 43.1903 324.856 43.6637 325.681 44.0783C326.149 44.3175 326.626 44.5499 327.134 44.6899C328.625 45.3334 330.243 45.6428 331.857 45.7089C332.237 45.7419 332.617 45.7915 332.998 45.7823C333.562 45.7505 334.126 45.7071 334.689 45.6575C336.206 45.5395 337.686 45.1138 339.093 44.5383C339.302 44.463 339.436 44.26 339.647 44.1903C339.832 44.1291 340.034 44.123 340.205 44.0208C342.141 43.0233 343.899 41.6471 345.285 39.9462C346.389 38.6686 347.241 37.1854 347.9 35.627C348.007 35.4099 347.929 35.1554 348.02 34.9334C348.088 34.7248 348.29 34.5964 348.35 34.3842C348.544 33.7597 348.706 33.1248 348.846 32.4863C348.957 31.8466 349.034 31.2013 349.093 30.5554C349.124 30.1787 349.174 29.8019 349.152 29.4233C349.108 28.2386 349.066 27.0441 348.801 25.8851C348.599 24.8515 348.268 23.8496 347.885 22.8723C347.814 22.6717 347.632 22.5438 347.541 22.3561C347.45 22.1805 347.473 21.9695 347.375 21.7977C345.609 18.2026 342.483 15.317 338.788 13.8809C338.399 13.8185 338.075 13.5787 337.695 13.4864C335.637 12.8442 333.452 12.6136 331.309 12.8258C330.674 12.8839 330.168 12.18 330.377 11.5769C330.058 11.5133 329.759 11.3096 329.634 10.9965C329.516 10.7549 329.595 10.4839 329.591 10.2289C329.551 9.76285 329.392 9.31392 329.186 8.89924C329.053 8.61606 328.756 8.47172 328.607 8.20078C328.361 7.8546 328.406 7.32616 328.728 7.04482C329.015 6.76592 329.463 6.78304 329.814 6.9072C330.299 7.15368 330.617 7.62952 330.881 8.09374C331.282 8.96774 331.588 9.95306 331.389 10.9231C331.565 10.906 331.743 10.8931 331.92 10.8827C332.113 10.0668 332.122 9.20138 331.922 8.38548C331.743 7.75919 331.386 7.20567 330.977 6.71026C330.411 6.08763 329.696 5.6228 328.928 5.30048C328.121 5.04176 327.275 4.94696 326.434 4.87785C325.971 4.85033 325.51 4.8803 325.048 4.89681C324.15 4.92128 323.264 5.11455 322.363 5.09559ZM349.037 11.0448C349.003 11.1323 349.034 11.2313 349.034 11.3231C349.109 11.939 349.017 12.5592 348.914 13.1653C348.835 13.6307 348.648 14.0662 348.474 14.5011C347.998 15.4937 347.214 16.2962 346.365 16.9677C347.194 17.898 347.914 18.9249 348.551 19.9995C349.181 19.2711 349.922 18.6197 350.79 18.2007C351.162 17.9983 351.543 17.8148 351.926 17.6344C352.388 17.2552 352.611 16.6613 352.766 16.0962C353.133 14.3494 352.895 12.4742 352.1 10.8803C351.81 10.3482 351.505 9.82462 351.163 9.32615C350.459 9.90475 349.756 10.4858 349.037 11.0448ZM313.314 15.1286C312.872 15.3781 312.446 15.6589 312.051 15.9793C311.708 16.2827 311.333 16.5494 311.019 16.8858C310.662 17.2778 310.289 17.6533 309.952 18.0637C309.519 18.6075 309.098 19.164 308.61 19.6595C309.394 20.1151 310.064 20.7359 310.77 21.3016C311.377 21.7304 312.052 22.0594 312.759 22.2772C313.821 22.6374 314.999 22.7414 316.075 22.3824C316.592 21.0705 317.255 19.8203 318.057 18.6662C317.925 18.6203 317.788 18.5818 317.674 18.498C317.487 18.3647 317.386 18.142 317.194 18.0136C316.867 17.7861 316.513 17.591 316.136 17.4631C315.768 17.3286 315.36 17.4882 315.002 17.3059C314.517 17.1341 314.31 16.4821 314.582 16.0466C314.795 15.7322 315.155 15.5023 315.539 15.5145C316.317 15.4503 317.064 15.7475 317.733 16.1212C318.251 16.4307 318.771 16.7903 319.067 17.3384C319.188 17.2032 319.312 17.0692 319.433 16.9341C319.293 16.7573 319.199 16.5488 319.047 16.3806C318.658 15.9225 318.239 15.4754 317.724 15.1604C317.092 14.8093 316.375 14.6289 315.656 14.6081C314.849 14.6044 314.047 14.7904 313.314 15.1286ZM353.69 19.0741C353.204 19.2062 352.714 19.3494 352.256 19.564C351.815 19.805 351.348 20.0013 350.942 20.3023C350.383 20.753 349.848 21.2601 349.497 21.8992C350.061 23.2252 350.478 24.6154 350.733 26.0368C350.898 25.9836 351.07 25.9493 351.244 25.9775C351.643 26.0331 352.041 25.912 352.41 25.7677C352.681 25.6625 352.963 25.5408 353.155 25.3096C353.398 25.0013 353.8 24.7946 354.193 24.8631C354.577 24.931 354.887 25.3004 354.88 25.6992C354.874 25.9359 354.828 26.1824 354.695 26.3811C354.435 26.7683 354.049 27.0472 353.655 27.2802C352.817 27.6906 351.882 27.9903 350.942 27.8478C350.952 28.0221 350.963 28.1976 350.974 28.3726C351.753 28.5701 352.585 28.5493 353.362 28.3506C354.804 27.8827 355.908 26.6301 356.404 25.2019C356.611 24.4454 356.717 23.6649 356.774 22.8833C356.87 21.4698 356.609 20.0698 356.561 18.6607C355.625 18.9292 354.644 18.9218 353.69 19.0741ZM308.97 24.5885C308.34 25.0918 307.79 25.6998 307.329 26.3646C307.023 26.7677 306.821 27.2399 306.6 27.6937C306.295 28.4814 306.051 29.3035 305.955 30.1469C306.853 30.2197 307.75 30.3187 308.641 30.4527C308.731 30.3542 308.819 30.2539 308.902 30.1499C309.266 29.7004 309.74 29.3646 310.203 29.0294C310.639 28.7206 311.141 28.5298 311.632 28.3347C312.652 28.0386 313.732 28.0545 314.776 28.1946C314.846 26.934 315.064 25.6851 315.373 24.4631C314.843 24.509 314.311 24.4821 313.782 24.4441C313.051 24.3659 312.342 24.1463 311.654 23.8912C311.405 23.8099 311.166 23.6417 310.893 23.698C310.181 23.7805 309.517 24.1285 308.97 24.5885ZM353.999 30.1334C353.027 30.4374 351.986 30.4392 350.984 30.3151C350.883 31.5622 350.742 32.8135 350.394 34.0184C351.019 34.0105 351.65 33.9829 352.267 34.1053C352.762 34.1891 353.229 34.3811 353.711 34.5144C353.959 34.5854 354.181 34.7303 354.431 34.7933C355.077 34.8025 355.703 34.5414 356.233 34.1811C356.988 33.6563 357.632 32.9805 358.175 32.2362C358.6 31.6667 358.898 31.0117 359.158 30.3512C359.365 29.6931 359.529 29.0221 359.651 28.3432C358.744 28.2637 357.837 28.1726 356.936 28.0313C356.184 29.0001 355.145 29.7304 353.999 30.1334ZM311.298 30.5622C310.914 30.8429 310.505 31.1071 310.222 31.5016C309.896 31.8374 309.659 32.2453 309.45 32.6631C309.199 33.0747 309.102 33.5542 309.003 34.0209C308.842 34.9469 308.751 35.8888 308.8 36.83C308.823 37.8306 309.019 38.819 309.019 39.8208C309.891 39.5915 310.795 39.5548 311.686 39.4478C312.425 39.2979 313.149 39.052 313.812 38.6832C314.243 38.4447 314.684 38.205 315.037 37.8514C315.47 37.4398 315.906 37.0062 316.158 36.4502C316.163 36.364 316.116 36.2863 316.091 36.2074C315.587 34.9713 315.231 33.6759 315.001 32.3585C314.799 32.471 314.571 32.5487 314.339 32.5065C314.003 32.4459 313.677 32.567 313.357 32.6496C313.005 32.7732 312.629 32.9132 312.387 33.2166C312.19 33.4374 311.926 33.6331 311.623 33.6472C311.211 33.6894 310.805 33.3726 310.73 32.9609C310.691 32.6417 310.724 32.2882 310.934 32.0319C311.389 31.4294 312.089 31.0857 312.781 30.8478C313.433 30.6509 314.14 30.4912 314.813 30.6894C314.799 30.5065 314.788 30.323 314.778 30.1401C313.622 29.8704 312.327 29.9004 311.298 30.5622ZM349.747 36.0404C349.21 37.3884 348.529 38.6771 347.715 39.8734C347.977 39.9805 348.126 40.2276 348.321 40.4166C348.673 40.6918 349.073 40.9083 349.5 41.0355C349.834 41.1438 350.197 41.0062 350.522 41.1566C350.99 41.29 351.248 41.863 351.058 42.3144C350.866 42.7487 350.386 43 349.927 42.9878C349.469 42.9744 349.003 42.9034 348.582 42.7138C347.826 42.4135 347.092 41.9689 346.6 41.2985C346.492 41.4257 346.382 41.5517 346.271 41.6759C346.389 41.9854 346.627 42.2184 346.841 42.46C347.273 42.9144 347.756 43.3529 348.357 43.5578C348.791 43.764 349.273 43.8123 349.743 43.8734C350.833 43.9046 351.966 43.6477 352.862 42.9909C354.025 42.2276 355.007 41.2123 355.876 40.1242C356.227 39.6783 356.583 39.2349 356.968 38.819C356.164 38.3744 355.499 37.7236 354.779 37.1585C354.186 36.7664 353.549 36.4337 352.867 36.2349C352.38 36.0728 351.884 35.9163 351.367 35.8979C350.825 35.882 350.271 35.879 349.747 36.0404ZM315.403 39.9358C314.91 40.2471 314.396 40.5279 313.858 40.7505C313.752 40.7982 313.638 40.8404 313.557 40.9285C313.207 41.2845 313.011 41.7609 312.858 42.2312C312.538 43.4471 312.61 44.734 312.871 45.9542C313.152 47.1297 313.752 48.1908 314.431 49.1725C314.72 48.8893 315.043 48.6471 315.354 48.3909C315.753 48.0722 316.137 47.7334 316.563 47.4514C316.467 46.3872 316.565 45.2832 316.987 44.2961C317.42 43.1266 318.323 42.208 319.29 41.4716C318.477 40.515 317.732 39.4949 317.144 38.3787C316.61 38.9462 316.077 39.5364 315.403 39.9358ZM319.327 43.9811C319.034 44.3199 318.805 44.7107 318.66 45.1376C318.271 46.1951 318.312 47.3866 318.672 48.4459C318.845 49.0569 319.208 49.5866 319.571 50.0954C320.062 50.7529 320.599 51.3749 321.208 51.9236C321.889 52.5866 322.678 53.1236 323.354 53.7927C323.709 53.1798 324.151 52.6275 324.594 52.0789C325.458 51.104 325.935 49.8398 326.187 48.5688C326.279 47.8239 326.303 47.0404 326.055 46.3224C325.773 46.2068 325.49 46.0948 325.218 45.9572C324.226 45.4673 323.249 44.9303 322.367 44.2526C322.308 44.4068 322.252 44.5701 322.133 44.6887C321.991 44.8312 321.817 44.9444 321.708 45.1187C321.477 45.4899 321.245 45.874 321.156 46.3101C321.088 46.6092 321.192 46.9272 321.07 47.2172C320.975 47.5658 320.654 47.8441 320.294 47.852C319.735 47.8997 319.284 47.3352 319.276 46.8019C319.216 46.1389 319.407 45.4887 319.682 44.8948C320.013 44.2514 320.4 43.5994 321.017 43.2007C320.894 43.0844 320.769 42.9688 320.645 42.8545C320.133 43.1328 319.718 43.5523 319.327 43.9811ZM341.9 45.2459C342.495 45.7994 343.056 46.4074 343.456 47.1248C343.698 47.5805 343.962 48.0275 344.137 48.5162C344.19 48.6881 344.325 48.8098 344.458 48.9199C345.133 49.4697 346.017 49.6251 346.857 49.6893C348.219 49.759 349.606 49.5003 350.828 48.8746C351.371 48.5762 351.913 48.2704 352.404 47.8881C351.817 47.1847 351.255 46.4575 350.701 45.7297C350.422 45.7224 350.146 45.7823 349.868 45.7676C348.884 45.7358 347.898 45.5034 347.03 45.0245C346.187 44.5395 345.496 43.8251 344.898 43.06C343.974 43.8881 342.967 44.6196 341.9 45.2459ZM335.921 47.4141C336.055 47.6789 335.999 47.9737 335.988 48.2569C336.072 48.7982 336.214 49.3566 336.541 49.8031C336.82 50.0563 337.115 50.3633 337.129 50.7682C337.165 51.2067 336.816 51.6281 336.387 51.671C336.089 51.6869 335.771 51.6294 335.534 51.4349C335.054 51.0624 334.734 50.5199 334.515 49.956C334.231 49.2116 334.025 48.3951 334.182 47.5964C334.008 47.6104 333.833 47.6239 333.658 47.6379C333.467 48.4594 333.465 49.3358 333.679 50.1535C334.145 51.6159 335.384 52.7395 336.797 53.2281C337.951 53.5492 339.156 53.6599 340.349 53.6018C341.308 53.5682 342.257 53.4018 343.217 53.3878C342.968 52.5132 342.949 51.5976 342.843 50.6997C342.682 49.8355 342.375 49.0006 341.934 48.2434C341.622 47.6135 341.138 47.093 340.625 46.6288C340.422 46.4808 340.228 46.285 339.985 46.2233C338.673 46.7487 337.32 47.1976 335.921 47.4141ZM328.09 47.0288C328.103 47.378 328.117 47.7279 328.094 48.0777C328.077 49.1407 327.731 50.1609 327.359 51.1431C327.275 51.4434 327.366 51.7615 327.451 52.0526C327.72 52.9425 328.345 53.6563 328.983 54.2985C329.526 54.7988 330.103 55.2765 330.773 55.5927C331.67 56.0911 332.678 56.3321 333.678 56.5131C333.755 55.5951 333.849 54.6777 333.981 53.7664C333.401 53.3101 332.936 52.7248 332.532 52.1083C332.025 51.2869 331.705 50.3401 331.678 49.3664C331.637 48.7853 331.678 48.2019 331.751 47.6251C330.518 47.523 329.283 47.3737 328.09 47.0288Z" fill="#324950" stroke="#EFEDEB" stroke-width="0.6" mask="url(#path-2-inside-1_1_574)"/>
<path d="M334.378 2.90175L334.378 2.9019L334.384 2.8986C334.571 2.80096 334.787 2.84888 334.98 3.03993C335.173 3.23156 335.321 3.55373 335.332 3.93661L335.332 3.93661L335.333 3.94531C335.363 4.2948 335.273 4.63908 335.121 4.88731C334.965 5.14095 334.767 5.26117 334.592 5.24688L334.582 5.24609L334.572 5.24657C334.413 5.25434 334.234 5.15145 334.086 4.9358C333.94 4.72382 333.842 4.42599 333.842 4.10793L333.842 4.10793L333.842 4.10029C333.827 3.82825 333.884 3.561 333.986 3.34371C334.09 3.12409 334.232 2.96966 334.378 2.90175Z" fill="#324950" stroke="#EFEDEB" stroke-width="0.3"/>
<path d="M336.593 5.60427L336.593 5.60463L336.603 5.60801C336.736 5.65237 336.852 5.73142 336.97 5.83111C337.026 5.87783 337.079 5.92728 337.136 5.97919C337.14 5.98286 337.144 5.98653 337.148 5.99022C337.206 6.04367 337.267 6.09949 337.33 6.15221C337.387 6.2084 337.445 6.26312 337.502 6.31605C337.507 6.32056 337.512 6.32507 337.516 6.32956C337.58 6.38904 337.641 6.4466 337.699 6.50579C337.813 6.62234 337.906 6.73899 337.968 6.87094C338.069 7.17334 338.075 7.4941 337.887 7.70047L337.887 7.70029L337.882 7.70731C337.658 7.98567 337.18 8.02993 336.903 7.79682L336.903 7.79646L336.894 7.78957C336.839 7.75056 336.796 7.69713 336.756 7.62833C336.728 7.58024 336.705 7.53361 336.68 7.48171C336.666 7.45355 336.652 7.42384 336.636 7.3915L336.629 7.37764L336.619 7.36551C336.531 7.25511 336.426 7.15814 336.324 7.06907C336.282 7.03229 336.241 6.99803 336.201 6.96458C336.141 6.91332 336.082 6.86397 336.023 6.81039C335.834 6.63842 335.697 6.47104 335.659 6.25104L335.659 6.25095L335.656 6.23882C335.586 5.97418 335.731 5.67665 335.993 5.59126C336.196 5.53341 336.413 5.52976 336.593 5.60427Z" fill="#324950" stroke="#EFEDEB" stroke-width="0.3"/>
<path d="M327.232 5.56742L327.232 5.56755L327.238 5.56611C327.449 5.51511 327.675 5.57537 327.851 5.71109C328.027 5.8467 328.14 6.04748 328.139 6.26265L328.138 6.26265L328.139 6.27612C328.172 6.66859 327.815 7.05156 327.42 7.0454L327.42 7.0448L327.407 7.04578C327.013 7.07473 326.635 6.71635 326.643 6.32458L326.644 6.32459L326.643 6.31196C326.621 5.9708 326.891 5.63546 327.232 5.56742Z" fill="#324950" stroke="#EFEDEB" stroke-width="0.3"/>
<path d="M345.173 8.28008L345.173 8.2802L345.179 8.27832C345.395 8.2085 345.634 8.25978 345.823 8.39487C346.012 8.52983 346.134 8.7375 346.132 8.96299L346.132 8.96298L346.133 8.97651C346.166 9.37524 345.799 9.75941 345.397 9.74564L345.397 9.74512L345.385 9.74573C344.996 9.76474 344.63 9.4113 344.637 9.0256L344.638 9.02561L344.637 9.01345C344.616 8.68923 344.855 8.369 345.173 8.28008Z" fill="#324950" stroke="#EFEDEB" stroke-width="0.3"/>
<path d="M319.929 10.0522L319.93 10.0522C320.221 10.0598 320.494 10.1928 320.723 10.3743C320.994 10.6039 321.018 11.0196 320.783 11.275L320.783 11.2749L320.78 11.2787C320.598 11.4895 320.263 11.5936 319.962 11.5248C319.662 11.3971 319.348 11.4119 319.066 11.4332C319.039 11.4352 319.012 11.4373 318.986 11.4394C318.721 11.4601 318.485 11.4785 318.26 11.4199L318.259 11.4198C318.097 11.3778 317.936 11.2973 317.82 11.1916C317.705 11.0866 317.643 10.9662 317.645 10.838L317.645 10.838L317.645 10.8317C317.641 10.6557 317.728 10.4884 317.881 10.3527C318.034 10.2173 318.244 10.1228 318.458 10.095C318.948 10.0548 319.44 10.0362 319.929 10.0522Z" fill="#324950" stroke="#EFEDEB" stroke-width="0.3"/>
<path d="M315.766 10.0873L315.766 10.0874L315.77 10.0865C316.129 10.0036 316.524 10.0549 316.832 10.191C317.148 10.3308 317.324 10.5359 317.336 10.7303L317.337 10.7398L317.339 10.7491C317.372 10.9222 317.276 11.1207 317.046 11.2865C316.821 11.4495 316.492 11.5571 316.139 11.5449L316.139 11.5446L316.131 11.5448C315.812 11.5523 315.509 11.4612 315.288 11.3193C315.064 11.1747 314.95 10.9963 314.95 10.8365L314.95 10.828L314.949 10.8197C314.933 10.6823 314.995 10.5311 315.142 10.3923C315.288 10.2542 315.507 10.1406 315.766 10.0873Z" fill="#324950" stroke="#EFEDEB" stroke-width="0.3"/>
<path d="M328.783 10.989L328.783 10.9891L328.785 10.9881C329.132 10.864 329.549 11.021 329.769 11.4047L329.769 11.4048L329.771 11.4085C329.901 11.6209 329.957 11.895 329.936 12.1662C329.915 12.4377 329.818 12.6919 329.66 12.8681L329.66 12.8681L329.656 12.8723C329.539 13.0118 329.392 13.0915 329.222 13.1515C329.136 13.1817 329.046 13.2061 328.951 13.2313C328.944 13.2331 328.937 13.235 328.93 13.2369C328.844 13.2598 328.753 13.2839 328.665 13.3131C328.326 13.4185 327.925 13.2591 327.713 12.8876L327.713 12.8876L327.711 12.8836C327.58 12.6713 327.525 12.3977 327.546 12.127C327.568 11.856 327.665 11.6021 327.824 11.4257L327.824 11.4257L327.828 11.4213C327.94 11.2867 328.081 11.2088 328.244 11.1497C328.327 11.1199 328.413 11.0956 328.505 11.0705C328.512 11.0685 328.52 11.0664 328.528 11.0643C328.61 11.0416 328.698 11.0177 328.783 10.989Z" fill="#324950" stroke="#EFEDEB" stroke-width="0.3"/>
<path d="M351.514 10.9809L351.514 10.9811L351.522 10.978C351.708 10.9007 351.923 10.9657 352.111 11.1752C352.297 11.3837 352.432 11.7162 352.43 12.0958L352.43 12.0958L352.43 12.1048C352.449 12.4444 352.355 12.7713 352.203 13.0052C352.049 13.2438 351.858 13.3567 351.688 13.3442L351.678 13.3435L351.669 13.344C351.507 13.3524 351.324 13.2466 351.174 13.0257C351.027 12.8086 350.93 12.5041 350.935 12.1806L350.935 12.1806L350.935 12.1724C350.923 11.8908 350.988 11.6168 351.1 11.3995C351.213 11.1794 351.364 11.0339 351.514 10.9809Z" fill="#324950" stroke="#EFEDEB" stroke-width="0.3"/>
<path d="M351.666 16.9414L351.666 16.9411L351.657 16.9418C351.473 16.9561 351.29 16.8962 351.154 16.7936C351.017 16.6901 350.94 16.5548 350.937 16.4244L350.937 16.4147L350.936 16.4051C350.929 16.3607 350.937 16.3124 350.96 16.248C350.972 16.2167 350.985 16.1851 351 16.1489L351.002 16.1449C351.018 16.1086 351.035 16.0673 351.05 16.0246L351.056 16.0062L351.058 15.9869C351.069 15.8353 351.057 15.6792 351.046 15.5371C351.043 15.4957 351.04 15.4556 351.037 15.4171C351.026 15.2413 351.028 15.0852 351.075 14.9369C351.148 14.7836 351.285 14.6444 351.465 14.5783C351.687 14.5046 351.909 14.5587 352.086 14.6842C352.265 14.811 352.381 14.9991 352.4 15.1682C352.403 15.2764 352.409 15.3816 352.415 15.4848C352.432 15.7699 352.447 16.0391 352.409 16.3117C352.336 16.6211 352.053 16.9339 351.666 16.9414Z" fill="#324950" stroke="#EFEDEB" stroke-width="0.3"/>
<path d="M312.502 16.3588L312.502 16.3591L312.51 16.3544C312.533 16.3416 312.552 16.341 312.576 16.3518C312.607 16.3652 312.649 16.399 312.692 16.4643C312.779 16.5944 312.847 16.8108 312.846 17.0634L312.845 17.0634L312.846 17.0702C312.855 17.2942 312.808 17.5074 312.735 17.6565C312.699 17.7313 312.659 17.7829 312.624 17.813C312.59 17.8423 312.569 17.8443 312.559 17.8434L312.546 17.8422L312.534 17.843C312.524 17.8437 312.503 17.8412 312.471 17.8139C312.437 17.7861 312.4 17.7386 312.365 17.6695C312.294 17.5317 312.246 17.3334 312.248 17.1197L312.248 17.1197L312.248 17.1136C312.242 16.9273 312.274 16.7472 312.328 16.6061C312.385 16.4579 312.455 16.3812 312.502 16.3588Z" fill="#324950" stroke="#EFEDEB" stroke-width="0.3"/>
<path d="M355.036 23.5614L355.036 23.5615L355.039 23.561C355.276 23.5201 355.538 23.5468 355.738 23.6146C355.838 23.6485 355.916 23.6901 355.966 23.7319C356.017 23.7746 356.026 23.8049 356.027 23.8178L356.027 23.8303L356.03 23.8425C356.033 23.8534 356.033 23.8719 356.011 23.9031C355.987 23.9365 355.941 23.9764 355.871 24.0147C355.731 24.0911 355.521 24.1447 355.292 24.1408L355.292 24.1407L355.286 24.1409C355.065 24.1465 354.857 24.0986 354.713 24.0267C354.64 23.9907 354.59 23.9521 354.561 23.9179C354.533 23.8845 354.531 23.8638 354.532 23.8544L354.533 23.8426L354.533 23.8308C354.532 23.8151 354.543 23.7652 354.64 23.7001C354.731 23.6392 354.87 23.5866 355.036 23.5614Z" fill="#324950" stroke="#EFEDEB" stroke-width="0.3"/>
<path d="M307.762 26.637L307.876 26.5399C307.732 26.3694 307.718 26.1854 307.795 26.0025C307.877 25.8108 308.062 25.6168 308.322 25.4688L308.322 25.4688L308.325 25.467C308.485 25.3705 308.636 25.2683 308.785 25.1673C309.275 24.8348 309.745 24.516 310.463 24.4623L310.463 24.4627L310.475 24.461C310.839 24.4055 311.22 24.4716 311.506 24.608C311.802 24.7493 311.945 24.9376 311.943 25.1006L311.943 25.1117L311.944 25.1227C311.961 25.2443 311.902 25.3803 311.748 25.5112C311.596 25.6411 311.367 25.7487 311.1 25.8041L311.087 25.807L311.074 25.8123C310.763 25.9403 310.514 26.1144 310.28 26.2783C310.262 26.2913 310.243 26.3043 310.225 26.3172C309.972 26.4931 309.729 26.6552 309.414 26.7633C309.151 26.837 308.828 26.8605 308.535 26.8221C308.235 26.7828 307.998 26.683 307.876 26.5399L307.762 26.637ZM307.762 26.637C308.077 27.0073 308.891 27.0671 309.458 26.9065L310.452 24.3127C309.69 24.3697 309.178 24.7173 308.682 25.0543C308.538 25.1524 308.395 25.2496 308.248 25.3385C307.69 25.6564 307.393 26.202 307.762 26.637Z" fill="#324950" stroke="#EFEDEB" stroke-width="0.3"/>
<path d="M307.7 27.1952L307.7 27.1953L307.706 27.1934C308.047 27.0802 308.423 27.1548 308.721 27.3564C309.019 27.5579 309.225 27.8765 309.239 28.2341L309.238 28.2341L309.24 28.247C309.324 28.9096 308.729 29.5634 308.062 29.5382L308.062 29.5376L308.049 29.5382C307.431 29.5681 306.851 29.0139 306.852 28.3965L306.853 28.3965L306.852 28.385C306.813 27.859 307.191 27.3421 307.7 27.1952Z" fill="#324950" stroke="#EFEDEB" stroke-width="0.3"/>
<path d="M357.232 29.8658L357.232 29.8659L357.236 29.8651C357.599 29.7989 357.984 29.8652 358.274 30.01C358.572 30.1585 358.727 30.364 358.726 30.5536L358.726 30.5636L358.727 30.5735C358.749 30.7417 358.647 30.9333 358.417 31.0918C358.191 31.2475 357.869 31.3489 357.527 31.3379L357.527 31.3377L357.519 31.3379C357.196 31.3454 356.888 31.2522 356.666 31.1077C356.44 30.9604 356.329 30.7798 356.334 30.6188L356.334 30.6097L356.333 30.6007C356.319 30.4588 356.391 30.3011 356.555 30.1594C356.717 30.0189 356.956 29.908 357.232 29.8658Z" fill="#324950" stroke="#EFEDEB" stroke-width="0.3"/>
<path d="M357.826 32.2458L357.825 32.2458L357.827 32.2533C357.844 32.3656 357.804 32.4863 357.702 32.617C357.599 32.7478 357.446 32.8736 357.273 32.9864L357.273 32.9864L357.272 32.987C357.163 33.0591 357.057 33.1318 356.952 33.2037C356.57 33.466 356.2 33.7196 355.736 33.9089C355.427 34.0114 355.042 34.0583 354.685 34.0293C354.321 33.9998 354.01 33.8942 353.826 33.7169L353.826 33.7166L353.818 33.7101C353.709 33.6186 353.656 33.5216 353.639 33.4309C353.622 33.3398 353.638 33.2418 353.692 33.1441C353.801 32.9457 354.064 32.7533 354.456 32.683L354.472 32.6802L354.486 32.6741C354.788 32.5508 355.032 32.3771 355.26 32.2147C355.307 32.1812 355.353 32.1482 355.399 32.1162C355.672 31.927 355.948 31.7614 356.33 31.6833C356.702 31.6177 357.114 31.6138 357.412 31.7451C357.684 31.8674 357.806 32.0679 357.826 32.2458Z" fill="#324950" stroke="#EFEDEB" stroke-width="0.3"/>
<path d="M310.015 33.4942L310.015 33.4943L310.02 33.4922C310.23 33.4005 310.475 33.4295 310.676 33.548C310.878 33.6664 311.02 33.8646 311.039 34.0919L311.038 34.092L311.04 34.103C311.103 34.51 310.755 34.9269 310.345 34.934L310.345 34.9335L310.333 34.9347C309.946 34.9717 309.564 34.6357 309.552 34.2482L309.552 34.2481L309.551 34.2375C309.52 33.9277 309.722 33.6108 310.015 33.4942Z" fill="#324950" stroke="#EFEDEB" stroke-width="0.3"/>
<path d="M352.977 40.6563L352.977 40.6566L352.985 40.6511C353.012 40.6331 353.031 40.6328 353.052 40.6398C353.079 40.6489 353.119 40.6759 353.163 40.7349C353.251 40.8528 353.324 41.0596 353.329 41.3117L353.329 41.3117L353.329 41.318C353.344 41.5471 353.3 41.7714 353.228 41.9308C353.191 42.0108 353.151 42.0671 353.114 42.1003C353.078 42.1331 353.056 42.1355 353.046 42.1346L353.033 42.1336L353.02 42.1347C353.011 42.1356 352.991 42.1336 352.959 42.1077C352.926 42.0811 352.889 42.0351 352.854 41.9673C352.783 41.832 352.733 41.636 352.734 41.4235L352.734 41.4235L352.734 41.4177C352.727 41.236 352.756 41.0585 352.807 40.9168C352.86 40.7689 352.927 40.6851 352.977 40.6563Z" fill="#324950" stroke="#EFEDEB" stroke-width="0.3"/>
<path d="M313.696 41.5764L313.696 41.5764L313.7 41.575C313.858 41.5212 314.04 41.5232 314.204 41.5734C314.368 41.6238 314.499 41.7182 314.57 41.8344L314.57 41.8345L314.575 41.8415C314.682 41.9969 314.662 42.2011 314.553 42.3974L314.54 42.4217L314.536 42.4492C314.511 42.6235 314.528 42.803 314.543 42.9611C314.546 42.9955 314.549 43.0289 314.552 43.061C314.567 43.2493 314.566 43.4098 314.504 43.5602C314.421 43.7314 314.257 43.8835 314.045 43.9259C313.891 43.9495 313.727 43.9221 313.587 43.8567C313.444 43.7905 313.337 43.691 313.285 43.5821L313.286 43.582L313.28 43.5724C313.218 43.4638 313.191 43.3439 313.178 43.2083C313.172 43.1403 313.169 43.0707 313.167 42.997C313.166 42.9917 313.166 42.9864 313.166 42.9811C313.164 42.915 313.161 42.8452 313.156 42.776C313.155 42.7221 313.153 42.6716 313.151 42.6228C313.148 42.5368 313.145 42.4558 313.148 42.3702C313.152 42.2434 313.17 42.1287 313.216 42.0229C313.329 41.8208 313.475 41.6443 313.696 41.5764Z" fill="#324950" stroke="#EFEDEB" stroke-width="0.3"/>
<path d="M313.679 46.0674L313.679 46.0675L313.684 46.0658C313.892 45.9975 314.124 46.0414 314.311 46.1655C314.497 46.2896 314.625 46.4846 314.639 46.7022L314.638 46.7023L314.64 46.7143C314.699 47.1292 314.326 47.5468 313.908 47.5321L313.908 47.5316L313.895 47.5322C313.508 47.5512 313.142 47.1989 313.148 46.8126L313.149 46.8126L313.148 46.8006C313.127 46.4776 313.363 46.1583 313.679 46.0674Z" fill="#324950" stroke="#EFEDEB" stroke-width="0.3"/>
<path d="M349.129 46.9605L349.129 46.9606L349.133 46.9598C349.497 46.8923 349.884 46.9583 350.176 47.1034C350.475 47.2523 350.631 47.4584 350.629 47.6483L350.629 47.6584L350.63 47.6684C350.652 47.8366 350.549 48.0281 350.319 48.1864C350.092 48.3419 349.77 48.443 349.429 48.4318L349.429 48.4316L349.42 48.4318C349.097 48.4389 348.789 48.3454 348.567 48.2005C348.341 48.0529 348.231 47.8722 348.236 47.7113L348.237 47.7021L348.236 47.6929C348.223 47.5516 348.294 47.3949 348.457 47.254C348.618 47.1141 348.855 47.0035 349.129 46.9605Z" fill="#324950" stroke="#EFEDEB" stroke-width="0.3"/>
<path d="M348.069 47.8105L348.069 47.8105L348.069 47.8105ZM348.069 47.8105C347.976 48.2143 347.55 48.4877 347.113 48.5464C347.03 48.5498 346.947 48.5536 346.864 48.5574C346.438 48.5769 346.011 48.5965 345.586 48.5692L348.069 47.8105ZM345.219 46.9539L345.219 46.9539L345.222 46.9534C345.313 46.9324 345.412 46.9301 345.521 46.9363L345.521 46.9363L345.525 46.9364C345.592 46.9387 345.655 46.9613 345.747 46.9939L345.75 46.9948C345.835 47.0251 345.947 47.0644 346.074 47.061C346.22 47.0609 346.371 47.0526 346.516 47.0446C346.591 47.0405 346.664 47.0364 346.734 47.0336C346.948 47.0251 347.153 47.0264 347.352 47.0617C347.53 47.1053 347.695 47.21 347.803 47.3435C347.912 47.4773 347.957 47.6294 347.923 47.7758L347.922 47.7768C347.849 48.0944 347.5 48.3408 347.099 48.3968C347.018 48.4002 346.936 48.4039 346.855 48.4076C346.43 48.4271 346.014 48.4461 345.599 48.4197C345.181 48.3754 344.784 48.1388 344.667 47.8143C344.546 47.4732 344.791 47.0452 345.219 46.9539Z" fill="#324950" stroke="#EFEDEB" stroke-width="0.3"/>
<path d="M319.966 48.7699L319.966 48.7699L319.971 48.7682C320.182 48.6953 320.418 48.7383 320.609 48.8642C320.799 48.99 320.928 49.1886 320.938 49.4097L320.937 49.4097L320.939 49.4221C320.99 49.8209 320.644 50.2227 320.242 50.2284L320.242 50.2279L320.229 50.2291C319.834 50.2675 319.447 49.9165 319.447 49.5218H319.447L319.446 49.5102C319.421 49.188 319.652 48.866 319.966 48.7699Z" fill="#324950" stroke="#EFEDEB" stroke-width="0.3"/>
<path d="M328.705 50.7792L328.705 50.7793L328.711 50.786C328.756 50.8384 328.793 50.9074 328.83 50.9935C328.848 51.0361 328.865 51.0803 328.882 51.1275L328.883 51.128C328.9 51.1745 328.919 51.2239 328.94 51.2723L328.945 51.2838L328.951 51.2942C329.069 51.4799 329.213 51.6439 329.348 51.7973C329.39 51.8445 329.43 51.8907 329.469 51.9363C329.637 52.1345 329.783 52.3331 329.871 52.5876C329.969 52.9059 329.974 53.2812 329.823 53.5289C329.653 53.7898 329.365 53.8752 329.116 53.8097C328.95 53.7491 328.802 53.6282 328.654 53.4689C328.559 53.3666 328.474 53.2598 328.385 53.1492C328.33 53.0809 328.274 53.0111 328.214 52.9401C328.166 52.8778 328.11 52.8119 328.056 52.7497C328.021 52.7083 327.987 52.6685 327.958 52.6324C327.877 52.533 327.806 52.4341 327.752 52.3198L327.753 52.3198L327.749 52.3138C327.61 52.0474 327.534 51.7197 327.542 51.3952C327.554 51.007 327.777 50.6762 328.029 50.5707C328.255 50.4808 328.525 50.5469 328.705 50.7792Z" fill="#324950" stroke="#EFEDEB" stroke-width="0.3"/>
<path d="M338.011 51.4697L338.011 51.4699L338.019 51.4666C338.205 51.3853 338.421 51.4474 338.61 51.6547C338.798 51.8611 338.935 52.1932 338.935 52.5742L338.934 52.5742L338.935 52.5829C338.954 52.9106 338.867 53.2306 338.724 53.4651C338.578 53.7044 338.394 53.8259 338.228 53.8262L338.218 53.8263L338.209 53.8275C338.043 53.8496 337.854 53.7533 337.696 53.5342C337.541 53.3188 337.436 53.0089 337.44 52.676L337.44 52.676L337.44 52.6676C337.427 52.387 337.49 52.113 337.6 51.8947C337.711 51.6736 337.862 51.5256 338.011 51.4697Z" fill="#324950" stroke="#EFEDEB" stroke-width="0.3"/>
<path d="M330.777 54.1641L330.777 54.1642L330.782 54.1624C330.999 54.0919 331.239 54.1431 331.428 54.2784C331.617 54.4136 331.74 54.6218 331.738 54.8481L331.737 54.8481L331.738 54.8617C331.77 55.2603 331.403 55.6435 331.002 55.6293L331.002 55.6288L330.989 55.6294C330.601 55.6479 330.235 55.2936 330.242 54.9075L330.243 54.9075L330.242 54.8958C330.222 54.5725 330.46 54.2541 330.777 54.1641Z" fill="#324950" stroke="#EFEDEB" stroke-width="0.3"/>
<path d="M0.693359 102V100.77L2.28516 100.496V89.2949L0.693359 89.0215V87.7812H11.6113V91.1992H9.96094L9.80469 89.2949H4.20898V93.8945H9.64844V95.4082H4.20898V100.496H9.92188L10.0781 98.5918H11.7188V102H0.693359ZM13.4375 96.9121C13.4375 95.2129 13.8086 93.8424 14.5508 92.8008C15.293 91.7591 16.3184 91.2383 17.627 91.2383C18.291 91.2383 18.8737 91.3685 19.375 91.6289C19.8763 91.8893 20.2962 92.2669 20.6348 92.7617L20.8105 91.4336H22.4316V101.863C22.4316 103.23 22.0508 104.305 21.2891 105.086C20.5273 105.874 19.4434 106.268 18.0371 106.268C17.5293 106.268 16.9792 106.196 16.3867 106.053C15.7943 105.916 15.2734 105.727 14.8242 105.486L15.3223 103.992C15.6803 104.181 16.1035 104.337 16.5918 104.461C17.0801 104.585 17.5553 104.646 18.0176 104.646C18.877 104.646 19.5052 104.406 19.9023 103.924C20.306 103.442 20.5078 102.755 20.5078 101.863V100.857C20.1628 101.3 19.7493 101.635 19.2676 101.863C18.7858 102.091 18.2324 102.205 17.6074 102.205C16.3118 102.205 15.293 101.736 14.5508 100.799C13.8086 99.8613 13.4375 98.6341 13.4375 97.1172V96.9121ZM15.3613 97.1172C15.3613 98.1784 15.5859 99.0312 16.0352 99.6758C16.4844 100.32 17.168 100.643 18.0859 100.643C18.6654 100.643 19.1504 100.512 19.541 100.252C19.9316 99.985 20.2539 99.6107 20.5078 99.1289V94.2656C20.2604 93.8164 19.9382 93.4616 19.541 93.2012C19.1439 92.9342 18.6654 92.8008 18.1055 92.8008C17.1875 92.8008 16.5007 93.1849 16.0449 93.9531C15.5892 94.7214 15.3613 95.7077 15.3613 96.9121V97.1172ZM24.7656 96.9121C24.7656 95.2129 25.1367 93.8424 25.8789 92.8008C26.6211 91.7591 27.6465 91.2383 28.9551 91.2383C29.6191 91.2383 30.2018 91.3685 30.7031 91.6289C31.2044 91.8893 31.6243 92.2669 31.9629 92.7617L32.1387 91.4336H33.7598V101.863C33.7598 103.23 33.3789 104.305 32.6172 105.086C31.8555 105.874 30.7715 106.268 29.3652 106.268C28.8574 106.268 28.3073 106.196 27.7148 106.053C27.1224 105.916 26.6016 105.727 26.1523 105.486L26.6504 103.992C27.0085 104.181 27.4316 104.337 27.9199 104.461C28.4082 104.585 28.8835 104.646 29.3457 104.646C30.2051 104.646 30.8333 104.406 31.2305 103.924C31.6341 103.442 31.8359 102.755 31.8359 101.863V100.857C31.4909 101.3 31.0775 101.635 30.5957 101.863C30.1139 102.091 29.5605 102.205 28.9355 102.205C27.64 102.205 26.6211 101.736 25.8789 100.799C25.1367 99.8613 24.7656 98.6341 24.7656 97.1172V96.9121ZM26.6895 97.1172C26.6895 98.1784 26.9141 99.0312 27.3633 99.6758C27.8125 100.32 28.4961 100.643 29.4141 100.643C29.9935 100.643 30.4785 100.512 30.8691 100.252C31.2598 99.985 31.582 99.6107 31.8359 99.1289V94.2656C31.5885 93.8164 31.2663 93.4616 30.8691 93.2012C30.472 92.9342 29.9935 92.8008 29.4336 92.8008C28.5156 92.8008 27.8288 93.1849 27.373 93.9531C26.9173 94.7214 26.6895 95.7077 26.6895 96.9121V97.1172ZM35.8496 104.822L37.4414 104.549V92.9473L35.8496 92.6738V91.4336H39.0918L39.2676 92.7227C39.6191 92.2409 40.0456 91.873 40.5469 91.6191C41.0547 91.3652 41.6406 91.2383 42.3047 91.2383C43.6133 91.2383 44.6289 91.7591 45.3516 92.8008C46.0807 93.8359 46.4453 95.2064 46.4453 96.9121V97.1172C46.4453 98.6406 46.0807 99.8711 45.3516 100.809C44.6224 101.74 43.6165 102.205 42.334 102.205C41.6829 102.205 41.11 102.098 40.6152 101.883C40.127 101.661 39.7103 101.336 39.3652 100.906V104.549L40.957 104.822V106.062H35.8496V104.822ZM44.5117 96.9121C44.5117 95.7077 44.2773 94.7214 43.8086 93.9531C43.3398 93.1849 42.6432 92.8008 41.7188 92.8008C41.1719 92.8008 40.7031 92.9245 40.3125 93.1719C39.9219 93.4193 39.6061 93.7578 39.3652 94.1875V99.334C39.6061 99.7702 39.9186 100.109 40.3027 100.35C40.6934 100.584 41.1719 100.701 41.7383 100.701C42.6497 100.701 43.3398 100.369 43.8086 99.7051C44.2773 99.041 44.5117 98.1784 44.5117 97.1172V96.9121ZM47.832 88.0059V86.7656H51.3477V100.496L52.9395 100.77V102H47.832V100.77L49.4238 100.496V88.2793L47.832 88.0059ZM61.2988 102C61.2402 101.714 61.1947 101.456 61.1621 101.229C61.1296 101.001 61.1068 100.773 61.0938 100.545C60.7227 101.02 60.2572 101.417 59.6973 101.736C59.1439 102.049 58.5514 102.205 57.9199 102.205C56.8197 102.205 55.9831 101.938 55.4102 101.404C54.8372 100.864 54.5508 100.105 54.5508 99.1289C54.5508 98.1263 54.9544 97.3548 55.7617 96.8145C56.5755 96.2676 57.6888 95.9941 59.1016 95.9941H61.084V94.7637C61.084 94.1452 60.8887 93.6569 60.498 93.2988C60.1074 92.9342 59.5638 92.752 58.8672 92.752C58.3854 92.752 57.959 92.8138 57.5879 92.9375C57.2233 93.0612 56.9271 93.2305 56.6992 93.4453L56.4941 94.5586H55.0098V92.5078C55.4915 92.1237 56.0742 91.8177 56.7578 91.5898C57.4414 91.3555 58.1836 91.2383 58.9844 91.2383C60.1823 91.2383 61.1523 91.5443 61.8945 92.1562C62.6367 92.7682 63.0078 93.6439 63.0078 94.7832V99.8711C63.0078 100.008 63.0078 100.141 63.0078 100.271C63.0143 100.402 63.0241 100.532 63.0371 100.662L63.8184 100.77V102H61.2988ZM58.2031 100.594C58.8411 100.594 59.4238 100.441 59.9512 100.135C60.4785 99.8288 60.8561 99.4609 61.084 99.0312V97.293H59.0332C58.2454 97.293 57.6204 97.4753 57.1582 97.8398C56.7025 98.2044 56.4746 98.6471 56.4746 99.168C56.4746 99.6302 56.6178 99.985 56.9043 100.232C57.1908 100.473 57.6237 100.594 58.2031 100.594ZM65.1367 100.77L66.7285 100.496V92.9473L65.1367 92.6738V91.4336H68.4473L68.584 93.0059C68.9355 92.446 69.375 92.013 69.9023 91.707C70.4362 91.3945 71.0417 91.2383 71.7188 91.2383C72.8581 91.2383 73.7402 91.5736 74.3652 92.2441C74.9902 92.9082 75.3027 93.9368 75.3027 95.3301V100.496L76.8945 100.77V102H71.7871V100.77L73.3789 100.496V95.3691C73.3789 94.4382 73.1934 93.7773 72.8223 93.3867C72.4577 92.9961 71.8978 92.8008 71.1426 92.8008C70.5892 92.8008 70.0977 92.9342 69.668 93.2012C69.2448 93.4681 68.9062 93.8327 68.6523 94.2949V100.496L70.2441 100.77V102H65.1367V100.77ZM81.6504 88.8848V91.4336H83.6523V92.8594H81.6504V99.2754C81.6504 99.7702 81.7513 100.118 81.9531 100.32C82.1615 100.522 82.4349 100.623 82.7734 100.623C82.9427 100.623 83.1315 100.61 83.3398 100.584C83.5547 100.551 83.7337 100.519 83.877 100.486L84.1406 101.805C83.9583 101.922 83.6914 102.016 83.3398 102.088C82.9883 102.166 82.6367 102.205 82.2852 102.205C81.5039 102.205 80.8822 101.971 80.4199 101.502C79.9577 101.027 79.7266 100.285 79.7266 99.2754V92.8594H78.0566V91.4336H79.7266V88.8848H81.6504ZM96.9531 87.7812C98.4701 87.7812 99.6484 88.1719 100.488 88.9531C101.335 89.7344 101.758 90.763 101.758 92.0391C101.758 93.3281 101.335 94.36 100.488 95.1348C99.6484 95.9095 98.4701 96.2969 96.9531 96.2969H93.9355V100.496L95.5273 100.77V102H90.4199V100.77L92.0117 100.496V89.2949L90.4199 89.0215V87.7812H92.0117H96.9531ZM93.9355 94.793H96.9531C97.9167 94.793 98.6361 94.5358 99.1113 94.0215C99.5931 93.5007 99.834 92.8464 99.834 92.0586C99.834 91.2708 99.5931 90.6133 99.1113 90.0859C98.6361 89.5586 97.9167 89.2949 96.9531 89.2949H93.9355V94.793ZM104.072 103.221H102.441L108.379 87.7812H110L104.072 103.221ZM123.848 94.998C123.848 97.0684 123.252 98.7871 122.061 100.154C120.876 101.521 119.339 102.205 117.451 102.205C115.615 102.205 114.124 101.521 112.979 100.154C111.833 98.7871 111.26 97.0684 111.26 94.998V94.793C111.26 92.7292 111.833 91.0104 112.979 89.6367C114.124 88.263 115.615 87.5762 117.451 87.5762C119.339 87.5762 120.876 88.263 122.061 89.6367C123.252 91.0104 123.848 92.7292 123.848 94.793V94.998ZM121.924 94.7734C121.924 93.1198 121.527 91.7721 120.732 90.7305C119.945 89.6823 118.851 89.1582 117.451 89.1582C116.11 89.1582 115.062 89.6823 114.307 90.7305C113.558 91.7786 113.184 93.1263 113.184 94.7734V94.998C113.184 96.6647 113.558 98.0221 114.307 99.0703C115.062 100.112 116.11 100.633 117.451 100.633C118.87 100.633 119.971 100.112 120.752 99.0703C121.533 98.0286 121.924 96.6712 121.924 94.998V94.7734Z" fill="#324950"/>
<path d="M48.8005 52.2752C47.1819 52.2185 45.7011 51.6251 44.4492 50.5026C41.8978 48.2115 41.767 45.73 42.1084 44.0498C42.8235 40.5218 46.3209 37.0487 50.6133 35.6038C56.3647 33.6673 58.7625 26.2925 58.7855 26.2176L60.0493 26.6283C59.9446 26.958 57.4138 34.7309 51.0301 36.8797C47.2283 38.1598 44.0231 41.2885 43.4086 44.3192C43.0168 46.2571 43.6634 47.9988 45.3297 49.4954C47.6904 51.6148 50.4702 51.0137 52.3806 50.1382C58.0753 47.5306 64.2134 38.691 64.2022 28.9568L65.5292 28.9533C65.5408 39.2252 58.997 48.5835 52.9262 51.363C51.4961 52.0189 50.103 52.3209 48.8005 52.2752Z" fill="#324950"/>
<path d="M66.4594 29.8919L65.9252 29.8213C60.5231 29.1131 57.8686 25.9954 57.7591 25.8621L57.5401 25.5993L57.6215 25.2651C57.9357 23.9911 58.9805 23.5581 59.8688 23.576C60.9919 22.8975 62.0102 22.5692 62.8974 22.6003C65.7181 22.6991 66.2329 26.072 66.3204 27.0444C66.9312 27.818 66.8173 28.8502 66.6379 29.3748L66.4594 29.8919ZM59.0419 25.273C59.7566 25.9684 61.8902 27.7552 65.4516 28.3878C65.4408 28.1873 65.383 27.9701 65.22 27.8137L65.0249 27.6255L65.0135 27.3525C65.0122 27.3187 64.8504 24.0144 62.851 23.9444C62.1837 23.921 61.3534 24.219 60.3856 24.8317L60.1761 24.9638L59.9313 24.9258L59.9264 24.9256C59.4175 24.9078 59.1675 25.0885 59.0419 25.273Z" fill="#324950"/>
<path d="M64.2829 23.483L62.9614 23.3792C62.9747 23.159 63.1998 21.1689 66.7098 19.0976L67.3772 20.2603C64.4942 21.9597 64.2852 23.4681 64.2829 23.483Z" fill="#324950"/>
<path d="M70.1434 58.3713L66.5543 58.2455L68.3748 6.27742L71.9638 6.40315L70.1434 58.3713ZM67.928 56.948L68.8651 56.9808L70.5915 7.70014L69.6543 7.66731L67.928 56.948Z" fill="#324950"/>
<path d="M67.8159 22.6175C67.8009 22.5345 67.4421 20.5559 65.2402 19.17C62.4625 17.4193 57.9329 17.4107 52.1418 19.1438L51.7668 17.8544C58.048 15.9752 62.8322 16.0422 65.982 18.0522C68.6811 19.7739 69.108 22.2926 69.1258 22.3989L67.8167 22.6132L68.4713 22.5061L67.8159 22.6175Z" fill="#324950"/>
<path d="M34.9382 29.3612C33.1205 29.2975 31.9421 28.7216 31.4356 27.6476C30.4605 25.5799 32.5574 22.5674 32.9874 21.9847C36.8475 17.263 43.1555 11.7273 51.3885 12.0157C55.8143 12.1707 60.3471 14.0072 64.8617 17.4733L65.2527 17.7753L65.0809 18.2427C64.952 18.5946 63.6269 21.6216 56.1684 21.8725C55.5511 23.593 52.9304 29.1266 44.8368 29.0857C41.8373 29.0701 38.7798 29.1618 35.7495 29.3571C35.4487 29.3684 35.184 29.3698 34.9382 29.3612ZM51.3408 13.3603C43.6469 13.0908 37.6803 18.354 34.0286 22.8172C33.3234 23.7717 32.0942 25.9286 32.6324 27.0667C32.9557 27.7522 33.9584 28.0787 35.6824 28.0153C38.7282 27.8187 41.8172 27.7262 44.845 27.7409C53.3383 27.7846 55.0232 21.1226 55.0385 21.0556L55.1599 20.549L55.6735 20.5401C60.953 20.4499 62.9147 18.9203 63.5609 18.1706C59.4365 15.1178 55.3266 13.4999 51.3408 13.3603Z" fill="#324950"/>
<path d="M67.4629 38.242C66.394 37.1472 65.8978 35.9898 65.9887 34.8024C66.131 32.9595 67.6679 31.7921 67.7344 31.7432C70.3846 29.8762 71.7571 28.084 71.7177 26.5487C71.6797 25.0972 70.3614 24.2513 70.3488 24.2433L71.0398 23.0951C71.1183 23.1435 72.9781 24.311 73.0447 26.4945C73.1052 28.5377 71.5782 30.6722 68.5043 32.8363C68.5043 32.8363 67.4014 33.6931 67.3118 34.915C67.2537 35.6928 67.6229 36.4936 68.4054 37.2952L67.4629 38.242Z" fill="#324950"/>
<path d="M66.9203 53.7317C65.8513 52.638 65.3551 51.4807 65.4461 50.2933C65.5884 48.4504 67.1253 47.2824 67.1918 47.2328C69.842 45.3659 71.2144 43.5743 71.175 42.0396C71.1395 40.5882 69.8188 39.7415 69.8061 39.733L70.4972 38.5847C70.5757 38.6337 72.4354 39.8013 72.5021 41.9848C72.5625 44.0286 71.0356 46.1625 67.9616 48.3266C67.9616 48.3266 66.8563 49.1827 66.7691 50.4059C66.711 51.183 67.0802 51.9839 67.8628 52.7848L66.9203 53.7317Z" fill="#324950"/>
<path d="M71.4883 18.8167L70.2591 18.3152C70.3469 18.097 72.453 12.9737 78.7957 11.4856L79.0946 12.7961C73.415 14.1273 71.5078 18.7698 71.4883 18.8167Z" fill="#324950"/>
<path d="M72.915 27.2579L71.8232 26.4961C71.9351 26.3306 74.6178 22.4456 79.8025 23.1969L79.6139 24.5279C75.2824 23.9021 73.0099 27.1205 72.915 27.2579Z" fill="#324950"/>
<path d="M87.8431 30.172L87.7929 30.0371C87.1521 28.5714 83.8244 27.9402 80.9211 27.8385C80.5607 27.8258 80.341 27.8275 80.333 27.8273C79.8843 27.9028 79.3545 27.9356 78.8517 27.9179C75.3292 27.7945 74.0353 25.3011 73.9817 25.1948L73.7683 24.7702L74.0944 24.4246C76.2511 22.1345 78.4151 21.0103 80.5273 21.0843C85.5618 21.2607 88.4763 28.1219 89.0218 29.5261C89.0479 29.592 89.0739 29.6599 89.0974 29.7288L87.8431 30.172ZM80.9688 26.4945C82.5301 26.5491 84.7991 26.7612 86.5634 27.4665C85.3277 25.2852 83.2307 22.5241 80.4808 22.4278C78.877 22.3716 77.1777 23.2257 75.4264 24.9684C75.8737 25.5281 76.9302 26.5043 78.8994 26.5733C79.3215 26.5881 79.7679 26.5599 80.2318 26.4899C80.3258 26.4826 80.5671 26.4804 80.9688 26.4945Z" fill="#324950"/>
<path d="M49.4195 48.5156L48.8977 47.2798C49.5586 46.9928 50.1944 46.683 50.7919 46.3557L51.4217 47.5396C50.7902 47.8845 50.1143 48.2129 49.4195 48.5156Z" fill="#324950"/>
<path d="M54.1508 45.7967L53.3664 44.7131C60.3356 39.5356 61.342 32.062 61.352 31.9879L62.6694 32.1548C62.6264 32.4841 61.5784 40.2808 54.1508 45.7967Z" fill="#324950"/>
</svg>
